<svg width="49" height="49" viewBox="0 0 49 49" fill="none" xmlns="http://www.w3.org/2000/svg">
<g clip-path="url(#clip0_529_8868)">
<mask id="path-1-outside-1_529_8868" maskUnits="userSpaceOnUse" x="0" y="0" width="49" height="49" fill="black">
<rect fill="white" width="49" height="49"/>
<path d="M23.3119 34.5738C24.1135 35.3556 24.9049 35.8235 25.8087 36.0909C26.253 36.2225 26.5991 36.4413 26.592 36.9456C26.5839 37.4469 26.2267 37.6414 25.7884 37.7852C23.8129 38.4334 22.481 39.7439 21.8444 41.735C21.7057 42.1674 21.5084 42.5168 20.9942 42.5279C20.4578 42.5401 20.2352 42.2049 20.0945 41.739C19.8243 40.8377 19.3668 40.0406 18.6594 39.3357C18.5167 39.4714 18.3831 39.593 18.2566 39.7196C15.9895 41.9871 13.7245 44.2557 11.4574 46.5233C9.48589 48.4941 6.95064 48.4921 4.96899 46.5182C4.10771 45.6604 3.24745 44.8036 2.39325 43.9397C0.540139 42.0661 0.531031 39.4937 2.39325 37.6303C8.95354 31.0646 15.5179 24.5039 22.0944 17.9564C22.4162 17.6354 22.8504 17.3842 23.2785 17.2262C23.5993 17.1078 23.7198 16.9639 23.7926 16.653C24.4849 13.6958 25.334 10.7871 26.5131 7.9818C27.4341 5.79019 28.7103 3.84773 30.4622 2.23036C31.6676 1.11734 33.0147 0.735527 34.6522 1.18317C37.7178 2.02071 40.3512 3.5358 42.6193 5.7669C44.609 7.72456 46.2506 9.89287 47.1828 12.5433C47.4894 13.4142 47.7171 14.3166 47.9307 15.2169C48.0916 15.8975 47.9671 16.5821 47.6119 17.1726C47.2587 17.76 46.8609 18.3403 46.3883 18.8325C44.3793 20.9248 41.8876 22.2576 39.1711 23.1559C36.9031 23.9054 34.5945 24.5353 32.2981 25.1966C32.0026 25.2817 31.8892 25.4113 31.7749 25.6959C31.5917 26.1527 31.3599 26.6327 31.0219 26.9781C28.6364 29.4127 26.2196 31.817 23.8078 34.2254C23.6742 34.353 23.5022 34.4401 23.3119 34.5738ZM30.4926 22.5179C31.3862 23.7747 31.4166 23.7869 32.787 23.4334C32.9985 23.3787 33.212 23.3301 33.4236 23.2724C36.2523 22.4987 39.0669 21.6844 41.6953 20.3465C43.2448 19.5576 44.5959 18.5013 45.7243 17.1756C46.197 16.6206 46.4581 16.0028 46.3002 15.22C45.7345 12.4035 44.3479 10.0306 42.4361 7.9423C40.1842 5.48333 37.5599 3.61682 34.2666 2.77421C33.1736 2.49468 32.3174 2.73775 31.5391 3.47706C30.4561 4.50602 29.5007 5.64132 28.8054 6.96803C27.1163 10.1886 26.1912 13.6765 25.3128 17.1776C25.2865 17.2809 25.2834 17.445 25.3441 17.5058C25.6943 17.8552 26.0678 18.1813 26.4483 18.5297C27.6203 16.808 28.7538 15.1319 29.8995 13.4639C30.2163 13.002 30.6849 12.8977 31.0765 13.1621C31.4642 13.4233 31.5401 13.9034 31.2405 14.3662C30.8367 14.9891 30.4146 15.5998 30.0017 16.2155C29.2234 17.3741 28.4462 18.5337 27.6577 19.7095C28.2367 20.2443 28.7913 20.7567 29.3833 21.3046C30.7476 20.386 32.2 19.4087 33.6523 18.4324C34.0025 18.1975 34.3445 17.9494 34.7048 17.7326C35.1178 17.4835 35.5712 17.5858 35.8191 17.9554C36.061 18.315 35.972 18.7778 35.5985 19.0745C35.4801 19.1687 35.3495 19.2477 35.224 19.3318C33.6462 20.3941 32.0694 21.4555 30.4926 22.5179ZM19.9953 22.3498C19.9407 22.3964 19.886 22.4369 19.8394 22.4835C14.3773 27.9513 8.91205 33.4162 3.45796 38.8921C2.35884 39.9961 2.37706 41.577 3.47112 42.7001C4.35466 43.6065 5.25642 44.4947 6.15312 45.388C7.4587 46.6873 8.97277 46.6802 10.2875 45.3697C15.6292 40.0447 20.971 34.7186 26.3117 29.3915C26.4392 29.2639 26.5596 29.1302 26.6568 29.0289C24.4323 26.7978 22.23 24.59 19.9953 22.3498ZM27.8865 27.8258C28.4279 27.2728 28.9542 26.7279 29.4876 26.1902C30.5503 25.1197 30.5523 24.9698 29.4987 23.9135C27.9037 22.3143 26.3097 20.7142 24.7116 19.1191C24.2622 18.6704 23.8179 18.5449 23.4647 18.8821C22.6905 19.6214 21.977 20.4225 21.2624 21.173C23.4333 23.3524 25.6306 25.5592 27.8865 27.8258ZM22.3332 35.8954C21.4881 36.6874 20.6795 37.4439 19.8809 38.1913C20.2584 38.6633 20.6228 39.119 20.9112 39.4795C21.7816 38.6045 22.652 37.7315 23.5163 36.8626C23.1328 36.5486 22.6793 36.178 22.3332 35.8954Z"/>
<path d="M43.7761 32.4632C43.7619 33.0759 43.5524 33.3595 43.1547 33.481C41.006 34.1352 39.6175 35.543 38.9606 37.688C38.8382 38.088 38.5568 38.2946 38.1287 38.2845C37.7208 38.2754 37.4638 38.0597 37.3484 37.6849C36.6926 35.5399 35.304 34.1322 33.1543 33.479C32.7566 33.3585 32.542 33.0759 32.5471 32.6495C32.5532 32.1664 32.8507 31.9345 33.2758 31.8049C35.057 31.261 36.3171 30.1257 37.068 28.4243C37.1693 28.1944 37.2553 27.9554 37.3251 27.7133C37.4476 27.288 37.7168 27.0409 38.1591 27.0419C38.6013 27.0429 38.8584 27.2961 38.989 27.7184C39.5831 29.6457 40.8158 30.9815 42.7063 31.6985C42.8946 31.7704 43.1243 31.7856 43.2711 31.9051C43.4988 32.0915 43.6729 32.3447 43.7761 32.4632ZM35.6319 32.5776C36.4972 33.4506 37.3767 34.3368 38.1662 35.1328C38.9738 34.3155 39.8391 33.4405 40.6872 32.5827C40.2854 32.2475 39.7794 31.8798 39.3422 31.4433C38.909 31.0099 38.5447 30.5075 38.157 30.0437C37.7603 30.5187 37.396 31.0251 36.9598 31.4605C36.5215 31.895 36.0135 32.2596 35.6319 32.5776Z"/>
<path d="M16.7 15.7274C16.1444 15.7172 15.9308 15.3901 15.7922 14.9506C15.2325 13.1732 14.0868 11.9184 12.3804 11.177C12.1649 11.0829 11.9412 11.0059 11.7145 10.9411C11.2884 10.8185 11.0435 10.5441 11.0465 10.1035C11.0506 9.66196 11.3066 9.40878 11.7287 9.2761C13.8095 8.62085 15.1829 7.25059 15.8316 5.16127C15.8468 5.11266 15.863 5.06506 15.8822 5.01847C16.0249 4.66401 16.3103 4.43816 16.6646 4.51412C16.9398 4.57387 17.1807 4.81289 17.4246 4.99012C17.4803 5.03063 17.4864 5.14203 17.5117 5.22204C18.1645 7.24249 19.4953 8.59047 21.5155 9.24572C21.9567 9.38852 22.2745 9.60424 22.2715 10.1197C22.2684 10.6372 21.9355 10.8418 21.5003 10.9836C19.4792 11.6399 18.1513 12.9929 17.5117 15.0174C17.375 15.4519 17.1291 15.7172 16.7 15.7274ZM14.1961 10.0812C14.9977 10.8884 15.8751 11.7725 16.6777 12.5807C17.4833 11.7634 18.3487 10.8854 19.1381 10.0853C18.3365 9.28522 17.4651 8.41526 16.6635 7.61518C15.865 8.41526 14.9946 9.28421 14.1961 10.0812Z"/>
</mask>
<path d="M23.3119 34.5738C24.1135 35.3556 24.9049 35.8235 25.8087 36.0909C26.253 36.2225 26.5991 36.4413 26.592 36.9456C26.5839 37.4469 26.2267 37.6414 25.7884 37.7852C23.8129 38.4334 22.481 39.7439 21.8444 41.735C21.7057 42.1674 21.5084 42.5168 20.9942 42.5279C20.4578 42.5401 20.2352 42.2049 20.0945 41.739C19.8243 40.8377 19.3668 40.0406 18.6594 39.3357C18.5167 39.4714 18.3831 39.593 18.2566 39.7196C15.9895 41.9871 13.7245 44.2557 11.4574 46.5233C9.48589 48.4941 6.95064 48.4921 4.96899 46.5182C4.10771 45.6604 3.24745 44.8036 2.39325 43.9397C0.540139 42.0661 0.531031 39.4937 2.39325 37.6303C8.95354 31.0646 15.5179 24.5039 22.0944 17.9564C22.4162 17.6354 22.8504 17.3842 23.2785 17.2262C23.5993 17.1078 23.7198 16.9639 23.7926 16.653C24.4849 13.6958 25.334 10.7871 26.5131 7.9818C27.4341 5.79019 28.7103 3.84773 30.4622 2.23036C31.6676 1.11734 33.0147 0.735527 34.6522 1.18317C37.7178 2.02071 40.3512 3.5358 42.6193 5.7669C44.609 7.72456 46.2506 9.89287 47.1828 12.5433C47.4894 13.4142 47.7171 14.3166 47.9307 15.2169C48.0916 15.8975 47.9671 16.5821 47.6119 17.1726C47.2587 17.76 46.8609 18.3403 46.3883 18.8325C44.3793 20.9248 41.8876 22.2576 39.1711 23.1559C36.9031 23.9054 34.5945 24.5353 32.2981 25.1966C32.0026 25.2817 31.8892 25.4113 31.7749 25.6959C31.5917 26.1527 31.3599 26.6327 31.0219 26.9781C28.6364 29.4127 26.2196 31.817 23.8078 34.2254C23.6742 34.353 23.5022 34.4401 23.3119 34.5738ZM30.4926 22.5179C31.3862 23.7747 31.4166 23.7869 32.787 23.4334C32.9985 23.3787 33.212 23.3301 33.4236 23.2724C36.2523 22.4987 39.0669 21.6844 41.6953 20.3465C43.2448 19.5576 44.5959 18.5013 45.7243 17.1756C46.197 16.6206 46.4581 16.0028 46.3002 15.22C45.7345 12.4035 44.3479 10.0306 42.4361 7.9423C40.1842 5.48333 37.5599 3.61682 34.2666 2.77421C33.1736 2.49468 32.3174 2.73775 31.5391 3.47706C30.4561 4.50602 29.5007 5.64132 28.8054 6.96803C27.1163 10.1886 26.1912 13.6765 25.3128 17.1776C25.2865 17.2809 25.2834 17.445 25.3441 17.5058C25.6943 17.8552 26.0678 18.1813 26.4483 18.5297C27.6203 16.808 28.7538 15.1319 29.8995 13.4639C30.2163 13.002 30.6849 12.8977 31.0765 13.1621C31.4642 13.4233 31.5401 13.9034 31.2405 14.3662C30.8367 14.9891 30.4146 15.5998 30.0017 16.2155C29.2234 17.3741 28.4462 18.5337 27.6577 19.7095C28.2367 20.2443 28.7913 20.7567 29.3833 21.3046C30.7476 20.386 32.2 19.4087 33.6523 18.4324C34.0025 18.1975 34.3445 17.9494 34.7048 17.7326C35.1178 17.4835 35.5712 17.5858 35.8191 17.9554C36.061 18.315 35.972 18.7778 35.5985 19.0745C35.4801 19.1687 35.3495 19.2477 35.224 19.3318C33.6462 20.3941 32.0694 21.4555 30.4926 22.5179ZM19.9953 22.3498C19.9407 22.3964 19.886 22.4369 19.8394 22.4835C14.3773 27.9513 8.91205 33.4162 3.45796 38.8921C2.35884 39.9961 2.37706 41.577 3.47112 42.7001C4.35466 43.6065 5.25642 44.4947 6.15312 45.388C7.4587 46.6873 8.97277 46.6802 10.2875 45.3697C15.6292 40.0447 20.971 34.7186 26.3117 29.3915C26.4392 29.2639 26.5596 29.1302 26.6568 29.0289C24.4323 26.7978 22.23 24.59 19.9953 22.3498ZM27.8865 27.8258C28.4279 27.2728 28.9542 26.7279 29.4876 26.1902C30.5503 25.1197 30.5523 24.9698 29.4987 23.9135C27.9037 22.3143 26.3097 20.7142 24.7116 19.1191C24.2622 18.6704 23.8179 18.5449 23.4647 18.8821C22.6905 19.6214 21.977 20.4225 21.2624 21.173C23.4333 23.3524 25.6306 25.5592 27.8865 27.8258ZM22.3332 35.8954C21.4881 36.6874 20.6795 37.4439 19.8809 38.1913C20.2584 38.6633 20.6228 39.119 20.9112 39.4795C21.7816 38.6045 22.652 37.7315 23.5163 36.8626C23.1328 36.5486 22.6793 36.178 22.3332 35.8954Z" fill="#B90417"/>
<path d="M43.7761 32.4632C43.7619 33.0759 43.5524 33.3595 43.1547 33.481C41.006 34.1352 39.6175 35.543 38.9606 37.688C38.8382 38.088 38.5568 38.2946 38.1287 38.2845C37.7208 38.2754 37.4638 38.0597 37.3484 37.6849C36.6926 35.5399 35.304 34.1322 33.1543 33.479C32.7566 33.3585 32.542 33.0759 32.5471 32.6495C32.5532 32.1664 32.8507 31.9345 33.2758 31.8049C35.057 31.261 36.3171 30.1257 37.068 28.4243C37.1693 28.1944 37.2553 27.9554 37.3251 27.7133C37.4476 27.288 37.7168 27.0409 38.1591 27.0419C38.6013 27.0429 38.8584 27.2961 38.989 27.7184C39.5831 29.6457 40.8158 30.9815 42.7063 31.6985C42.8946 31.7704 43.1243 31.7856 43.2711 31.9051C43.4988 32.0915 43.6729 32.3447 43.7761 32.4632ZM35.6319 32.5776C36.4972 33.4506 37.3767 34.3368 38.1662 35.1328C38.9738 34.3155 39.8391 33.4405 40.6872 32.5827C40.2854 32.2475 39.7794 31.8798 39.3422 31.4433C38.909 31.0099 38.5447 30.5075 38.157 30.0437C37.7603 30.5187 37.396 31.0251 36.9598 31.4605C36.5215 31.895 36.0135 32.2596 35.6319 32.5776Z" fill="#B90417"/>
<path d="M16.7 15.7274C16.1444 15.7172 15.9308 15.3901 15.7922 14.9506C15.2325 13.1732 14.0868 11.9184 12.3804 11.177C12.1649 11.0829 11.9412 11.0059 11.7145 10.9411C11.2884 10.8185 11.0435 10.5441 11.0465 10.1035C11.0506 9.66196 11.3066 9.40878 11.7287 9.2761C13.8095 8.62085 15.1829 7.25059 15.8316 5.16127C15.8468 5.11266 15.863 5.06506 15.8822 5.01847C16.0249 4.66401 16.3103 4.43816 16.6646 4.51412C16.9398 4.57387 17.1807 4.81289 17.4246 4.99012C17.4803 5.03063 17.4864 5.14203 17.5117 5.22204C18.1645 7.24249 19.4953 8.59047 21.5155 9.24572C21.9567 9.38852 22.2745 9.60424 22.2715 10.1197C22.2684 10.6372 21.9355 10.8418 21.5003 10.9836C19.4792 11.6399 18.1513 12.9929 17.5117 15.0174C17.375 15.4519 17.1291 15.7172 16.7 15.7274ZM14.1961 10.0812C14.9977 10.8884 15.8751 11.7725 16.6777 12.5807C17.4833 11.7634 18.3487 10.8854 19.1381 10.0853C18.3365 9.28522 17.4651 8.41526 16.6635 7.61518C15.865 8.41526 14.9946 9.28421 14.1961 10.0812Z" fill="#B90417"/>
<path d="M23.3119 34.5738C24.1135 35.3556 24.9049 35.8235 25.8087 36.0909C26.253 36.2225 26.5991 36.4413 26.592 36.9456C26.5839 37.4469 26.2267 37.6414 25.7884 37.7852C23.8129 38.4334 22.481 39.7439 21.8444 41.735C21.7057 42.1674 21.5084 42.5168 20.9942 42.5279C20.4578 42.5401 20.2352 42.2049 20.0945 41.739C19.8243 40.8377 19.3668 40.0406 18.6594 39.3357C18.5167 39.4714 18.3831 39.593 18.2566 39.7196C15.9895 41.9871 13.7245 44.2557 11.4574 46.5233C9.48589 48.4941 6.95064 48.4921 4.96899 46.5182C4.10771 45.6604 3.24745 44.8036 2.39325 43.9397C0.540139 42.0661 0.531031 39.4937 2.39325 37.6303C8.95354 31.0646 15.5179 24.5039 22.0944 17.9564C22.4162 17.6354 22.8504 17.3842 23.2785 17.2262C23.5993 17.1078 23.7198 16.9639 23.7926 16.653C24.4849 13.6958 25.334 10.7871 26.5131 7.9818C27.4341 5.79019 28.7103 3.84773 30.4622 2.23036C31.6676 1.11734 33.0147 0.735527 34.6522 1.18317C37.7178 2.02071 40.3512 3.5358 42.6193 5.7669C44.609 7.72456 46.2506 9.89287 47.1828 12.5433C47.4894 13.4142 47.7171 14.3166 47.9307 15.2169C48.0916 15.8975 47.9671 16.5821 47.6119 17.1726C47.2587 17.76 46.8609 18.3403 46.3883 18.8325C44.3793 20.9248 41.8876 22.2576 39.1711 23.1559C36.9031 23.9054 34.5945 24.5353 32.2981 25.1966C32.0026 25.2817 31.8892 25.4113 31.7749 25.6959C31.5917 26.1527 31.3599 26.6327 31.0219 26.9781C28.6364 29.4127 26.2196 31.817 23.8078 34.2254C23.6742 34.353 23.5022 34.4401 23.3119 34.5738ZM30.4926 22.5179C31.3862 23.7747 31.4166 23.7869 32.787 23.4334C32.9985 23.3787 33.212 23.3301 33.4236 23.2724C36.2523 22.4987 39.0669 21.6844 41.6953 20.3465C43.2448 19.5576 44.5959 18.5013 45.7243 17.1756C46.197 16.6206 46.4581 16.0028 46.3002 15.22C45.7345 12.4035 44.3479 10.0306 42.4361 7.9423C40.1842 5.48333 37.5599 3.61682 34.2666 2.77421C33.1736 2.49468 32.3174 2.73775 31.5391 3.47706C30.4561 4.50602 29.5007 5.64132 28.8054 6.96803C27.1163 10.1886 26.1912 13.6765 25.3128 17.1776C25.2865 17.2809 25.2834 17.445 25.3441 17.5058C25.6943 17.8552 26.0678 18.1813 26.4483 18.5297C27.6203 16.808 28.7538 15.1319 29.8995 13.4639C30.2163 13.002 30.6849 12.8977 31.0765 13.1621C31.4642 13.4233 31.5401 13.9034 31.2405 14.3662C30.8367 14.9891 30.4146 15.5998 30.0017 16.2155C29.2234 17.3741 28.4462 18.5337 27.6577 19.7095C28.2367 20.2443 28.7913 20.7567 29.3833 21.3046C30.7476 20.386 32.2 19.4087 33.6523 18.4324C34.0025 18.1975 34.3445 17.9494 34.7048 17.7326C35.1178 17.4835 35.5712 17.5858 35.8191 17.9554C36.061 18.315 35.972 18.7778 35.5985 19.0745C35.4801 19.1687 35.3495 19.2477 35.224 19.3318C33.6462 20.3941 32.0694 21.4555 30.4926 22.5179ZM19.9953 22.3498C19.9407 22.3964 19.886 22.4369 19.8394 22.4835C14.3773 27.9513 8.91205 33.4162 3.45796 38.8921C2.35884 39.9961 2.37706 41.577 3.47112 42.7001C4.35466 43.6065 5.25642 44.4947 6.15312 45.388C7.4587 46.6873 8.97277 46.6802 10.2875 45.3697C15.6292 40.0447 20.971 34.7186 26.3117 29.3915C26.4392 29.2639 26.5596 29.1302 26.6568 29.0289C24.4323 26.7978 22.23 24.59 19.9953 22.3498ZM27.8865 27.8258C28.4279 27.2728 28.9542 26.7279 29.4876 26.1902C30.5503 25.1197 30.5523 24.9698 29.4987 23.9135C27.9037 22.3143 26.3097 20.7142 24.7116 19.1191C24.2622 18.6704 23.8179 18.5449 23.4647 18.8821C22.6905 19.6214 21.977 20.4225 21.2624 21.173C23.4333 23.3524 25.6306 25.5592 27.8865 27.8258ZM22.3332 35.8954C21.4881 36.6874 20.6795 37.4439 19.8809 38.1913C20.2584 38.6633 20.6228 39.119 20.9112 39.4795C21.7816 38.6045 22.652 37.7315 23.5163 36.8626C23.1328 36.5486 22.6793 36.178 22.3332 35.8954Z" stroke="#B90417" mask="url(#path-1-outside-1_529_8868)"/>
<path d="M43.7761 32.4632C43.7619 33.0759 43.5524 33.3595 43.1547 33.481C41.006 34.1352 39.6175 35.543 38.9606 37.688C38.8382 38.088 38.5568 38.2946 38.1287 38.2845C37.7208 38.2754 37.4638 38.0597 37.3484 37.6849C36.6926 35.5399 35.304 34.1322 33.1543 33.479C32.7566 33.3585 32.542 33.0759 32.5471 32.6495C32.5532 32.1664 32.8507 31.9345 33.2758 31.8049C35.057 31.261 36.3171 30.1257 37.068 28.4243C37.1693 28.1944 37.2553 27.9554 37.3251 27.7133C37.4476 27.288 37.7168 27.0409 38.1591 27.0419C38.6013 27.0429 38.8584 27.2961 38.989 27.7184C39.5831 29.6457 40.8158 30.9815 42.7063 31.6985C42.8946 31.7704 43.1243 31.7856 43.2711 31.9051C43.4988 32.0915 43.6729 32.3447 43.7761 32.4632ZM35.6319 32.5776C36.4972 33.4506 37.3767 34.3368 38.1662 35.1328C38.9738 34.3155 39.8391 33.4405 40.6872 32.5827C40.2854 32.2475 39.7794 31.8798 39.3422 31.4433C38.909 31.0099 38.5447 30.5075 38.157 30.0437C37.7603 30.5187 37.396 31.0251 36.9598 31.4605C36.5215 31.895 36.0135 32.2596 35.6319 32.5776Z" stroke="#B90417" mask="url(#path-1-outside-1_529_8868)"/>
<path d="M16.7 15.7274C16.1444 15.7172 15.9308 15.3901 15.7922 14.9506C15.2325 13.1732 14.0868 11.9184 12.3804 11.177C12.1649 11.0829 11.9412 11.0059 11.7145 10.9411C11.2884 10.8185 11.0435 10.5441 11.0465 10.1035C11.0506 9.66196 11.3066 9.40878 11.7287 9.2761C13.8095 8.62085 15.1829 7.25059 15.8316 5.16127C15.8468 5.11266 15.863 5.06506 15.8822 5.01847C16.0249 4.66401 16.3103 4.43816 16.6646 4.51412C16.9398 4.57387 17.1807 4.81289 17.4246 4.99012C17.4803 5.03063 17.4864 5.14203 17.5117 5.22204C18.1645 7.24249 19.4953 8.59047 21.5155 9.24572C21.9567 9.38852 22.2745 9.60424 22.2715 10.1197C22.2684 10.6372 21.9355 10.8418 21.5003 10.9836C19.4792 11.6399 18.1513 12.9929 17.5117 15.0174C17.375 15.4519 17.1291 15.7172 16.7 15.7274ZM14.1961 10.0812C14.9977 10.8884 15.8751 11.7725 16.6777 12.5807C17.4833 11.7634 18.3487 10.8854 19.1381 10.0853C18.3365 9.28522 17.4651 8.41526 16.6635 7.61518C15.865 8.41526 14.9946 9.28421 14.1961 10.0812Z" stroke="#B90417" mask="url(#path-1-outside-1_529_8868)"/>
</g>
<defs>
<clipPath id="clip0_529_8868">
<rect width="48" height="48" fill="white" transform="translate(0.5 0.5)"/>
</clipPath>
</defs>
</svg>
