<svg width="49" height="49" viewBox="0 0 49 49" fill="none" xmlns="http://www.w3.org/2000/svg">
<path d="M7.92 11.3H38.348C41.104 11.3 43.094 13.84 42.338 16.396L39.03 27.596C38.52 29.316 36.892 30.5 35.04 30.5H16.724C14.87 30.5 13.24 29.314 12.732 27.596L7.92 11.3ZM7.92 11.3L6.5 6.5M33.5 42.5C34.2956 42.5 35.0587 42.1839 35.6213 41.6213C36.1839 41.0587 36.5 40.2956 36.5 39.5C36.5 38.7044 36.1839 37.9413 35.6213 37.3787C35.0587 36.8161 34.2956 36.5 33.5 36.5C32.7044 36.5 31.9413 36.8161 31.3787 37.3787C30.8161 37.9413 30.5 38.7044 30.5 39.5C30.5 40.2956 30.8161 41.0587 31.3787 41.6213C31.9413 42.1839 32.7044 42.5 33.5 42.5ZM17.5 42.5C18.2956 42.5 19.0587 42.1839 19.6213 41.6213C20.1839 41.0587 20.5 40.2956 20.5 39.5C20.5 38.7044 20.1839 37.9413 19.6213 37.3787C19.0587 36.8161 18.2956 36.5 17.5 36.5C16.7044 36.5 15.9413 36.8161 15.3787 37.3787C14.8161 37.9413 14.5 38.7044 14.5 39.5C14.5 40.2956 14.8161 41.0587 15.3787 41.6213C15.9413 42.1839 16.7044 42.5 17.5 42.5Z" stroke="#B90417" stroke-width="2.8" stroke-linecap="round" stroke-linejoin="round"/>
</svg>
