<svg width="48" height="50" viewBox="0 0 48 50" fill="none" xmlns="http://www.w3.org/2000/svg">
<mask id="path-1-outside-1_524_9296" maskUnits="userSpaceOnUse" x="2.17114" y="0" width="43" height="50" fill="black">
<rect fill="white" x="2.17114" width="43" height="50"/>
<path fill-rule="evenodd" clip-rule="evenodd" d="M24.078 1.00225C25.0056 1.01415 25.7548 1.09739 26.2186 1.22821C26.6111 1.34713 27.277 1.59687 27.7052 1.79904C28.1333 2.00122 28.7993 2.39366 29.1917 2.67908C29.5842 2.95261 30.3572 3.66615 30.9161 4.23699C31.4751 4.81972 32.3075 5.85435 32.7713 6.54411C33.2232 7.23387 33.9011 8.41122 34.2698 9.16044C34.6384 9.90966 35.1379 11.0632 35.3758 11.7173C35.6255 12.3714 36.0061 13.525 36.2201 14.2742C36.4461 15.0234 36.7553 16.3078 36.9218 17.1284C37.0764 17.9489 37.2429 19.0192 37.2905 19.5068C37.3499 20.1847 37.3261 20.5415 37.1834 20.9934C37.0764 21.3264 36.7434 21.921 36.4461 22.3372C36.1488 22.7416 35.5423 23.3838 35.0785 23.7643C34.6266 24.133 34.2936 24.4779 34.3411 24.5135C34.3887 24.5492 35.3639 24.9179 36.5056 25.3341C37.6472 25.7503 39.0624 26.3093 39.657 26.5828C40.2398 26.8444 41.0485 27.2845 41.4409 27.5461C41.8333 27.8196 42.4161 28.3191 42.7253 28.6759C43.0345 29.0327 43.4745 29.6867 43.7005 30.1505C43.9145 30.6024 44.1999 31.3873 44.3307 31.8749C44.4616 32.3625 44.6281 33.2069 44.7232 33.7539C44.8659 34.6221 44.8659 34.7767 44.7113 35.0621C44.6162 35.2286 44.4021 35.4545 44.2356 35.5497C43.974 35.7043 43.8907 35.7043 43.534 35.5497C43.3199 35.4545 43.0939 35.2999 43.0464 35.2048C42.9869 35.1097 42.8918 34.5745 42.8204 34.0156C42.7372 33.4566 42.5707 32.6242 42.4399 32.1722C42.2971 31.7084 42.0474 31.0781 41.8809 30.7571C41.7025 30.436 41.2625 29.9008 40.8938 29.5678C40.5252 29.2229 39.7997 28.7472 39.2289 28.4737C38.6819 28.2002 36.8623 27.4747 35.1974 26.8801C33.5324 26.2736 32.1054 25.7741 32.0459 25.7741C31.9745 25.7741 31.487 25.9406 30.9518 26.1428C30.4047 26.3569 29.7626 26.559 29.5247 26.6066C29.2036 26.6542 28.9777 26.6304 28.7517 26.4877C28.5139 26.345 28.3949 26.1547 28.3474 25.8455C28.2998 25.5363 28.3474 25.3103 28.4663 25.1319C28.5971 24.9536 28.9539 24.7752 29.5128 24.6087C29.9885 24.4779 30.7496 24.1924 31.2134 23.9784C31.6653 23.7643 32.3908 23.36 32.8189 23.0865C33.247 22.801 33.9011 22.2659 34.2817 21.8972C34.6622 21.5285 35.0785 21.0291 35.2093 20.7912C35.3282 20.5415 35.4352 20.1966 35.4352 20.0182C35.4352 19.7328 35.2687 19.5782 34.1627 18.829C33.4492 18.3652 32.474 17.7943 31.9864 17.5565C31.4988 17.3305 31.0707 17.1521 31.035 17.1759C30.9994 17.1997 30.9399 17.4376 30.8804 17.7111C30.8329 17.9727 30.6545 18.4841 30.488 18.829C30.3096 19.162 29.9409 19.7447 29.6674 20.1015C29.3939 20.4582 28.7279 21.1718 28.1928 21.6831C27.6695 22.1826 26.9441 22.7772 26.5992 23.0032C26.2662 23.2292 25.6597 23.5027 25.2672 23.6216C24.744 23.7643 24.3158 23.8 23.6618 23.7524C23.0196 23.693 22.5795 23.5859 22.0563 23.3243C21.6519 23.1221 20.8551 22.5275 20.213 21.9448C19.5946 21.3739 18.881 20.6723 18.6194 20.3631C18.3696 20.0539 17.9891 19.4831 17.7631 19.0906C17.5491 18.6982 17.2993 18.0916 17.2161 17.7468C17.0853 17.2116 17.0258 17.1402 16.8236 17.1997C16.6928 17.2354 16.1339 17.5089 15.5749 17.8062C15.016 18.0916 14.1359 18.6387 13.6127 19.0074C12.9705 19.4712 12.6494 19.7685 12.6256 19.9587C12.6137 20.1015 12.7802 20.4701 13.0062 20.7912C13.2202 21.1004 13.803 21.6713 14.2786 22.0756C14.7662 22.468 15.4322 22.9794 15.7533 23.1935C16.0744 23.4194 16.7523 23.8 17.2399 24.0378C17.7274 24.2757 18.4172 24.5611 18.7621 24.6681C19.1189 24.7752 19.4518 24.9655 19.5589 25.1319C19.654 25.2747 19.7373 25.5363 19.7373 25.7266C19.7373 25.9168 19.6064 26.1666 19.4043 26.3688C19.1426 26.6185 18.9999 26.6661 18.6669 26.6185C18.441 26.5828 17.7869 26.3688 16.1695 25.6909L13.1608 26.7731C11.5196 27.3677 9.62872 28.105 8.97464 28.4261C8.26109 28.7591 7.52376 29.2229 7.14321 29.5678C6.79833 29.8889 6.3702 30.3884 6.20371 30.6857C6.02532 30.983 5.79936 31.5419 5.66855 31.9344C5.54962 32.3268 5.37124 33.1593 5.28799 33.7777C5.14528 34.7172 5.06203 34.9551 4.81229 35.181C4.6458 35.3237 4.38417 35.4427 4.21767 35.4427C4.05118 35.4427 3.75387 35.2999 3.17114 34.7886L3.38521 33.5399C3.50413 32.8501 3.7063 31.9463 3.82522 31.5182C3.95604 31.09 4.21767 30.4478 4.39606 30.0911C4.57445 29.7343 4.94311 29.1516 5.21664 28.8067C5.47827 28.4737 6.03721 27.9504 6.45345 27.665C6.85779 27.3677 7.70215 26.892 8.32055 26.6066C8.93896 26.3093 10.4612 25.7147 11.7099 25.2628C12.9467 24.8227 13.9932 24.4422 14.0289 24.4184C14.0646 24.3946 13.8981 24.2281 13.6721 24.0616C13.4462 23.8951 12.8278 23.3124 12.2926 22.7891C11.6504 22.1351 11.2223 21.5999 10.9963 21.1123C10.6871 20.4463 10.6634 20.3393 10.7466 19.5068C10.7942 19.0192 10.9845 17.83 11.1747 16.8548C11.3769 15.8915 11.8169 14.2385 12.1737 13.1801C12.5186 12.1098 13.0537 10.7065 13.351 10.0524C13.6365 9.39829 14.1597 8.37554 14.5046 7.79282C14.8376 7.1982 15.4203 6.30627 15.789 5.783C16.1576 5.27163 16.9782 4.3678 17.6085 3.76129C18.2269 3.16667 19.0832 2.47691 19.5113 2.22717C19.9275 1.98932 20.6411 1.65634 21.1049 1.50173C21.5568 1.34713 22.092 1.16875 22.2941 1.09739C22.4844 1.02604 23.2931 0.990361 24.078 1.00225ZM21.64 3.32127C21.2833 3.45209 20.6411 3.78508 20.213 4.0586C19.7848 4.33213 19.0356 4.96242 18.548 5.46191C18.0604 5.96139 17.3112 6.8771 16.895 7.49551C16.4787 8.11391 15.8366 9.26748 15.456 10.0524C15.0754 10.8373 14.576 12.0027 14.3381 12.633C14.1003 13.2752 13.7316 14.4763 13.5056 15.3088C13.2797 16.1532 13.1251 16.8667 13.1727 16.9143C13.2202 16.9619 13.3867 16.9024 13.5532 16.7835C13.7197 16.6527 14.3857 16.284 15.0398 15.9629C15.6938 15.6299 16.8712 15.1423 17.6561 14.8807C18.441 14.6191 19.4875 14.3336 19.9751 14.2266C20.4627 14.1315 21.4498 13.9888 22.1752 13.9055C22.9363 13.8223 24.0542 13.7985 24.851 13.8461C25.6002 13.8817 26.6943 13.9888 27.2889 14.0958C27.8717 14.1909 28.8944 14.4169 29.5485 14.6072C30.2026 14.7974 31.2134 15.1542 31.8081 15.404C32.3908 15.6537 33.2946 16.0937 33.806 16.3791C34.3055 16.6527 34.7693 16.8905 34.8406 16.8905C34.9001 16.8905 34.7693 16.1889 34.5433 15.3445C34.3173 14.4882 33.9368 13.2752 33.6989 12.633C33.4611 12.0027 32.9616 10.8373 32.5811 10.0524C32.2005 9.26748 31.5583 8.11391 31.1421 7.49551C30.7258 6.8771 29.9291 5.91382 29.3701 5.35487C28.8112 4.79593 28.0263 4.15374 27.6457 3.92779C27.2533 3.70183 26.5873 3.39263 26.1592 3.23803C25.6359 3.04775 25.0413 2.94072 24.3158 2.91693C23.7212 2.89315 23.0315 2.91693 22.7698 2.97639C22.5082 3.02396 21.9968 3.17856 21.64 3.32127ZM19.9156 16.177C19.3924 16.3197 18.9524 16.4386 18.9405 16.4505C18.9167 16.4624 18.9643 16.7478 19.0237 17.0689C19.0951 17.4019 19.3448 18.0084 19.5946 18.4246C19.8681 18.8884 20.4746 19.5901 21.1644 20.2561C21.9136 20.9696 22.5082 21.4334 22.9482 21.6237C23.5072 21.8734 23.7093 21.9091 24.3158 21.8496C24.7559 21.8021 25.2078 21.6594 25.5051 21.481C25.7667 21.3145 26.4921 20.6842 27.1106 20.0658C27.8241 19.3641 28.383 18.6863 28.6209 18.2462C28.8231 17.8657 29.0252 17.2948 29.0728 16.9856L29.156 16.4267C28.3593 16.2126 27.7409 16.0818 27.2889 15.9867C26.8251 15.8915 25.5764 15.7964 24.4942 15.7607C23.412 15.7369 22.1514 15.7607 21.6995 15.8321C21.2357 15.8915 20.4389 16.0461 19.9156 16.177ZM11.2818 29.9722H36.7434L37.338 30.5668V47.0972H38.9435C40.5014 47.0972 40.5609 47.1091 40.8463 47.3945C41.0366 47.5848 41.1436 47.8227 41.1436 48.0486C41.1436 48.2627 41.0366 48.5243 40.5609 49H7.48809L7.19078 48.7027C7.0005 48.5124 6.89347 48.2746 6.89347 48.0486C6.89347 47.8345 7.0005 47.5729 7.19078 47.3945C7.4643 47.1091 7.52376 47.0972 10.699 47.0972L10.7109 30.5549L10.9963 30.2695L11.2818 29.9722ZM12.6018 47.0972H35.4352V31.8749H12.6018V47.0972Z"/>
</mask>
<path fill-rule="evenodd" clip-rule="evenodd" d="M24.078 1.00225C25.0056 1.01415 25.7548 1.09739 26.2186 1.22821C26.6111 1.34713 27.277 1.59687 27.7052 1.79904C28.1333 2.00122 28.7993 2.39366 29.1917 2.67908C29.5842 2.95261 30.3572 3.66615 30.9161 4.23699C31.4751 4.81972 32.3075 5.85435 32.7713 6.54411C33.2232 7.23387 33.9011 8.41122 34.2698 9.16044C34.6384 9.90966 35.1379 11.0632 35.3758 11.7173C35.6255 12.3714 36.0061 13.525 36.2201 14.2742C36.4461 15.0234 36.7553 16.3078 36.9218 17.1284C37.0764 17.9489 37.2429 19.0192 37.2905 19.5068C37.3499 20.1847 37.3261 20.5415 37.1834 20.9934C37.0764 21.3264 36.7434 21.921 36.4461 22.3372C36.1488 22.7416 35.5423 23.3838 35.0785 23.7643C34.6266 24.133 34.2936 24.4779 34.3411 24.5135C34.3887 24.5492 35.3639 24.9179 36.5056 25.3341C37.6472 25.7503 39.0624 26.3093 39.657 26.5828C40.2398 26.8444 41.0485 27.2845 41.4409 27.5461C41.8333 27.8196 42.4161 28.3191 42.7253 28.6759C43.0345 29.0327 43.4745 29.6867 43.7005 30.1505C43.9145 30.6024 44.1999 31.3873 44.3307 31.8749C44.4616 32.3625 44.6281 33.2069 44.7232 33.7539C44.8659 34.6221 44.8659 34.7767 44.7113 35.0621C44.6162 35.2286 44.4021 35.4545 44.2356 35.5497C43.974 35.7043 43.8907 35.7043 43.534 35.5497C43.3199 35.4545 43.0939 35.2999 43.0464 35.2048C42.9869 35.1097 42.8918 34.5745 42.8204 34.0156C42.7372 33.4566 42.5707 32.6242 42.4399 32.1722C42.2971 31.7084 42.0474 31.0781 41.8809 30.7571C41.7025 30.436 41.2625 29.9008 40.8938 29.5678C40.5252 29.2229 39.7997 28.7472 39.2289 28.4737C38.6819 28.2002 36.8623 27.4747 35.1974 26.8801C33.5324 26.2736 32.1054 25.7741 32.0459 25.7741C31.9745 25.7741 31.487 25.9406 30.9518 26.1428C30.4047 26.3569 29.7626 26.559 29.5247 26.6066C29.2036 26.6542 28.9777 26.6304 28.7517 26.4877C28.5139 26.345 28.3949 26.1547 28.3474 25.8455C28.2998 25.5363 28.3474 25.3103 28.4663 25.1319C28.5971 24.9536 28.9539 24.7752 29.5128 24.6087C29.9885 24.4779 30.7496 24.1924 31.2134 23.9784C31.6653 23.7643 32.3908 23.36 32.8189 23.0865C33.247 22.801 33.9011 22.2659 34.2817 21.8972C34.6622 21.5285 35.0785 21.0291 35.2093 20.7912C35.3282 20.5415 35.4352 20.1966 35.4352 20.0182C35.4352 19.7328 35.2687 19.5782 34.1627 18.829C33.4492 18.3652 32.474 17.7943 31.9864 17.5565C31.4988 17.3305 31.0707 17.1521 31.035 17.1759C30.9994 17.1997 30.9399 17.4376 30.8804 17.7111C30.8329 17.9727 30.6545 18.4841 30.488 18.829C30.3096 19.162 29.9409 19.7447 29.6674 20.1015C29.3939 20.4582 28.7279 21.1718 28.1928 21.6831C27.6695 22.1826 26.9441 22.7772 26.5992 23.0032C26.2662 23.2292 25.6597 23.5027 25.2672 23.6216C24.744 23.7643 24.3158 23.8 23.6618 23.7524C23.0196 23.693 22.5795 23.5859 22.0563 23.3243C21.6519 23.1221 20.8551 22.5275 20.213 21.9448C19.5946 21.3739 18.881 20.6723 18.6194 20.3631C18.3696 20.0539 17.9891 19.4831 17.7631 19.0906C17.5491 18.6982 17.2993 18.0916 17.2161 17.7468C17.0853 17.2116 17.0258 17.1402 16.8236 17.1997C16.6928 17.2354 16.1339 17.5089 15.5749 17.8062C15.016 18.0916 14.1359 18.6387 13.6127 19.0074C12.9705 19.4712 12.6494 19.7685 12.6256 19.9587C12.6137 20.1015 12.7802 20.4701 13.0062 20.7912C13.2202 21.1004 13.803 21.6713 14.2786 22.0756C14.7662 22.468 15.4322 22.9794 15.7533 23.1935C16.0744 23.4194 16.7523 23.8 17.2399 24.0378C17.7274 24.2757 18.4172 24.5611 18.7621 24.6681C19.1189 24.7752 19.4518 24.9655 19.5589 25.1319C19.654 25.2747 19.7373 25.5363 19.7373 25.7266C19.7373 25.9168 19.6064 26.1666 19.4043 26.3688C19.1426 26.6185 18.9999 26.6661 18.6669 26.6185C18.441 26.5828 17.7869 26.3688 16.1695 25.6909L13.1608 26.7731C11.5196 27.3677 9.62872 28.105 8.97464 28.4261C8.26109 28.7591 7.52376 29.2229 7.14321 29.5678C6.79833 29.8889 6.3702 30.3884 6.20371 30.6857C6.02532 30.983 5.79936 31.5419 5.66855 31.9344C5.54962 32.3268 5.37124 33.1593 5.28799 33.7777C5.14528 34.7172 5.06203 34.9551 4.81229 35.181C4.6458 35.3237 4.38417 35.4427 4.21767 35.4427C4.05118 35.4427 3.75387 35.2999 3.17114 34.7886L3.38521 33.5399C3.50413 32.8501 3.7063 31.9463 3.82522 31.5182C3.95604 31.09 4.21767 30.4478 4.39606 30.0911C4.57445 29.7343 4.94311 29.1516 5.21664 28.8067C5.47827 28.4737 6.03721 27.9504 6.45345 27.665C6.85779 27.3677 7.70215 26.892 8.32055 26.6066C8.93896 26.3093 10.4612 25.7147 11.7099 25.2628C12.9467 24.8227 13.9932 24.4422 14.0289 24.4184C14.0646 24.3946 13.8981 24.2281 13.6721 24.0616C13.4462 23.8951 12.8278 23.3124 12.2926 22.7891C11.6504 22.1351 11.2223 21.5999 10.9963 21.1123C10.6871 20.4463 10.6634 20.3393 10.7466 19.5068C10.7942 19.0192 10.9845 17.83 11.1747 16.8548C11.3769 15.8915 11.8169 14.2385 12.1737 13.1801C12.5186 12.1098 13.0537 10.7065 13.351 10.0524C13.6365 9.39829 14.1597 8.37554 14.5046 7.79282C14.8376 7.1982 15.4203 6.30627 15.789 5.783C16.1576 5.27163 16.9782 4.3678 17.6085 3.76129C18.2269 3.16667 19.0832 2.47691 19.5113 2.22717C19.9275 1.98932 20.6411 1.65634 21.1049 1.50173C21.5568 1.34713 22.092 1.16875 22.2941 1.09739C22.4844 1.02604 23.2931 0.990361 24.078 1.00225ZM21.64 3.32127C21.2833 3.45209 20.6411 3.78508 20.213 4.0586C19.7848 4.33213 19.0356 4.96242 18.548 5.46191C18.0604 5.96139 17.3112 6.8771 16.895 7.49551C16.4787 8.11391 15.8366 9.26748 15.456 10.0524C15.0754 10.8373 14.576 12.0027 14.3381 12.633C14.1003 13.2752 13.7316 14.4763 13.5056 15.3088C13.2797 16.1532 13.1251 16.8667 13.1727 16.9143C13.2202 16.9619 13.3867 16.9024 13.5532 16.7835C13.7197 16.6527 14.3857 16.284 15.0398 15.9629C15.6938 15.6299 16.8712 15.1423 17.6561 14.8807C18.441 14.6191 19.4875 14.3336 19.9751 14.2266C20.4627 14.1315 21.4498 13.9888 22.1752 13.9055C22.9363 13.8223 24.0542 13.7985 24.851 13.8461C25.6002 13.8817 26.6943 13.9888 27.2889 14.0958C27.8717 14.1909 28.8944 14.4169 29.5485 14.6072C30.2026 14.7974 31.2134 15.1542 31.8081 15.404C32.3908 15.6537 33.2946 16.0937 33.806 16.3791C34.3055 16.6527 34.7693 16.8905 34.8406 16.8905C34.9001 16.8905 34.7693 16.1889 34.5433 15.3445C34.3173 14.4882 33.9368 13.2752 33.6989 12.633C33.4611 12.0027 32.9616 10.8373 32.5811 10.0524C32.2005 9.26748 31.5583 8.11391 31.1421 7.49551C30.7258 6.8771 29.9291 5.91382 29.3701 5.35487C28.8112 4.79593 28.0263 4.15374 27.6457 3.92779C27.2533 3.70183 26.5873 3.39263 26.1592 3.23803C25.6359 3.04775 25.0413 2.94072 24.3158 2.91693C23.7212 2.89315 23.0315 2.91693 22.7698 2.97639C22.5082 3.02396 21.9968 3.17856 21.64 3.32127ZM19.9156 16.177C19.3924 16.3197 18.9524 16.4386 18.9405 16.4505C18.9167 16.4624 18.9643 16.7478 19.0237 17.0689C19.0951 17.4019 19.3448 18.0084 19.5946 18.4246C19.8681 18.8884 20.4746 19.5901 21.1644 20.2561C21.9136 20.9696 22.5082 21.4334 22.9482 21.6237C23.5072 21.8734 23.7093 21.9091 24.3158 21.8496C24.7559 21.8021 25.2078 21.6594 25.5051 21.481C25.7667 21.3145 26.4921 20.6842 27.1106 20.0658C27.8241 19.3641 28.383 18.6863 28.6209 18.2462C28.8231 17.8657 29.0252 17.2948 29.0728 16.9856L29.156 16.4267C28.3593 16.2126 27.7409 16.0818 27.2889 15.9867C26.8251 15.8915 25.5764 15.7964 24.4942 15.7607C23.412 15.7369 22.1514 15.7607 21.6995 15.8321C21.2357 15.8915 20.4389 16.0461 19.9156 16.177ZM11.2818 29.9722H36.7434L37.338 30.5668V47.0972H38.9435C40.5014 47.0972 40.5609 47.1091 40.8463 47.3945C41.0366 47.5848 41.1436 47.8227 41.1436 48.0486C41.1436 48.2627 41.0366 48.5243 40.5609 49H7.48809L7.19078 48.7027C7.0005 48.5124 6.89347 48.2746 6.89347 48.0486C6.89347 47.8345 7.0005 47.5729 7.19078 47.3945C7.4643 47.1091 7.52376 47.0972 10.699 47.0972L10.7109 30.5549L10.9963 30.2695L11.2818 29.9722ZM12.6018 47.0972H35.4352V31.8749H12.6018V47.0972Z" fill="#B90417"/>
<path fill-rule="evenodd" clip-rule="evenodd" d="M24.078 1.00225C25.0056 1.01415 25.7548 1.09739 26.2186 1.22821C26.6111 1.34713 27.277 1.59687 27.7052 1.79904C28.1333 2.00122 28.7993 2.39366 29.1917 2.67908C29.5842 2.95261 30.3572 3.66615 30.9161 4.23699C31.4751 4.81972 32.3075 5.85435 32.7713 6.54411C33.2232 7.23387 33.9011 8.41122 34.2698 9.16044C34.6384 9.90966 35.1379 11.0632 35.3758 11.7173C35.6255 12.3714 36.0061 13.525 36.2201 14.2742C36.4461 15.0234 36.7553 16.3078 36.9218 17.1284C37.0764 17.9489 37.2429 19.0192 37.2905 19.5068C37.3499 20.1847 37.3261 20.5415 37.1834 20.9934C37.0764 21.3264 36.7434 21.921 36.4461 22.3372C36.1488 22.7416 35.5423 23.3838 35.0785 23.7643C34.6266 24.133 34.2936 24.4779 34.3411 24.5135C34.3887 24.5492 35.3639 24.9179 36.5056 25.3341C37.6472 25.7503 39.0624 26.3093 39.657 26.5828C40.2398 26.8444 41.0485 27.2845 41.4409 27.5461C41.8333 27.8196 42.4161 28.3191 42.7253 28.6759C43.0345 29.0327 43.4745 29.6867 43.7005 30.1505C43.9145 30.6024 44.1999 31.3873 44.3307 31.8749C44.4616 32.3625 44.6281 33.2069 44.7232 33.7539C44.8659 34.6221 44.8659 34.7767 44.7113 35.0621C44.6162 35.2286 44.4021 35.4545 44.2356 35.5497C43.974 35.7043 43.8907 35.7043 43.534 35.5497C43.3199 35.4545 43.0939 35.2999 43.0464 35.2048C42.9869 35.1097 42.8918 34.5745 42.8204 34.0156C42.7372 33.4566 42.5707 32.6242 42.4399 32.1722C42.2971 31.7084 42.0474 31.0781 41.8809 30.7571C41.7025 30.436 41.2625 29.9008 40.8938 29.5678C40.5252 29.2229 39.7997 28.7472 39.2289 28.4737C38.6819 28.2002 36.8623 27.4747 35.1974 26.8801C33.5324 26.2736 32.1054 25.7741 32.0459 25.7741C31.9745 25.7741 31.487 25.9406 30.9518 26.1428C30.4047 26.3569 29.7626 26.559 29.5247 26.6066C29.2036 26.6542 28.9777 26.6304 28.7517 26.4877C28.5139 26.345 28.3949 26.1547 28.3474 25.8455C28.2998 25.5363 28.3474 25.3103 28.4663 25.1319C28.5971 24.9536 28.9539 24.7752 29.5128 24.6087C29.9885 24.4779 30.7496 24.1924 31.2134 23.9784C31.6653 23.7643 32.3908 23.36 32.8189 23.0865C33.247 22.801 33.9011 22.2659 34.2817 21.8972C34.6622 21.5285 35.0785 21.0291 35.2093 20.7912C35.3282 20.5415 35.4352 20.1966 35.4352 20.0182C35.4352 19.7328 35.2687 19.5782 34.1627 18.829C33.4492 18.3652 32.474 17.7943 31.9864 17.5565C31.4988 17.3305 31.0707 17.1521 31.035 17.1759C30.9994 17.1997 30.9399 17.4376 30.8804 17.7111C30.8329 17.9727 30.6545 18.4841 30.488 18.829C30.3096 19.162 29.9409 19.7447 29.6674 20.1015C29.3939 20.4582 28.7279 21.1718 28.1928 21.6831C27.6695 22.1826 26.9441 22.7772 26.5992 23.0032C26.2662 23.2292 25.6597 23.5027 25.2672 23.6216C24.744 23.7643 24.3158 23.8 23.6618 23.7524C23.0196 23.693 22.5795 23.5859 22.0563 23.3243C21.6519 23.1221 20.8551 22.5275 20.213 21.9448C19.5946 21.3739 18.881 20.6723 18.6194 20.3631C18.3696 20.0539 17.9891 19.4831 17.7631 19.0906C17.5491 18.6982 17.2993 18.0916 17.2161 17.7468C17.0853 17.2116 17.0258 17.1402 16.8236 17.1997C16.6928 17.2354 16.1339 17.5089 15.5749 17.8062C15.016 18.0916 14.1359 18.6387 13.6127 19.0074C12.9705 19.4712 12.6494 19.7685 12.6256 19.9587C12.6137 20.1015 12.7802 20.4701 13.0062 20.7912C13.2202 21.1004 13.803 21.6713 14.2786 22.0756C14.7662 22.468 15.4322 22.9794 15.7533 23.1935C16.0744 23.4194 16.7523 23.8 17.2399 24.0378C17.7274 24.2757 18.4172 24.5611 18.7621 24.6681C19.1189 24.7752 19.4518 24.9655 19.5589 25.1319C19.654 25.2747 19.7373 25.5363 19.7373 25.7266C19.7373 25.9168 19.6064 26.1666 19.4043 26.3688C19.1426 26.6185 18.9999 26.6661 18.6669 26.6185C18.441 26.5828 17.7869 26.3688 16.1695 25.6909L13.1608 26.7731C11.5196 27.3677 9.62872 28.105 8.97464 28.4261C8.26109 28.7591 7.52376 29.2229 7.14321 29.5678C6.79833 29.8889 6.3702 30.3884 6.20371 30.6857C6.02532 30.983 5.79936 31.5419 5.66855 31.9344C5.54962 32.3268 5.37124 33.1593 5.28799 33.7777C5.14528 34.7172 5.06203 34.9551 4.81229 35.181C4.6458 35.3237 4.38417 35.4427 4.21767 35.4427C4.05118 35.4427 3.75387 35.2999 3.17114 34.7886L3.38521 33.5399C3.50413 32.8501 3.7063 31.9463 3.82522 31.5182C3.95604 31.09 4.21767 30.4478 4.39606 30.0911C4.57445 29.7343 4.94311 29.1516 5.21664 28.8067C5.47827 28.4737 6.03721 27.9504 6.45345 27.665C6.85779 27.3677 7.70215 26.892 8.32055 26.6066C8.93896 26.3093 10.4612 25.7147 11.7099 25.2628C12.9467 24.8227 13.9932 24.4422 14.0289 24.4184C14.0646 24.3946 13.8981 24.2281 13.6721 24.0616C13.4462 23.8951 12.8278 23.3124 12.2926 22.7891C11.6504 22.1351 11.2223 21.5999 10.9963 21.1123C10.6871 20.4463 10.6634 20.3393 10.7466 19.5068C10.7942 19.0192 10.9845 17.83 11.1747 16.8548C11.3769 15.8915 11.8169 14.2385 12.1737 13.1801C12.5186 12.1098 13.0537 10.7065 13.351 10.0524C13.6365 9.39829 14.1597 8.37554 14.5046 7.79282C14.8376 7.1982 15.4203 6.30627 15.789 5.783C16.1576 5.27163 16.9782 4.3678 17.6085 3.76129C18.2269 3.16667 19.0832 2.47691 19.5113 2.22717C19.9275 1.98932 20.6411 1.65634 21.1049 1.50173C21.5568 1.34713 22.092 1.16875 22.2941 1.09739C22.4844 1.02604 23.2931 0.990361 24.078 1.00225ZM21.64 3.32127C21.2833 3.45209 20.6411 3.78508 20.213 4.0586C19.7848 4.33213 19.0356 4.96242 18.548 5.46191C18.0604 5.96139 17.3112 6.8771 16.895 7.49551C16.4787 8.11391 15.8366 9.26748 15.456 10.0524C15.0754 10.8373 14.576 12.0027 14.3381 12.633C14.1003 13.2752 13.7316 14.4763 13.5056 15.3088C13.2797 16.1532 13.1251 16.8667 13.1727 16.9143C13.2202 16.9619 13.3867 16.9024 13.5532 16.7835C13.7197 16.6527 14.3857 16.284 15.0398 15.9629C15.6938 15.6299 16.8712 15.1423 17.6561 14.8807C18.441 14.6191 19.4875 14.3336 19.9751 14.2266C20.4627 14.1315 21.4498 13.9888 22.1752 13.9055C22.9363 13.8223 24.0542 13.7985 24.851 13.8461C25.6002 13.8817 26.6943 13.9888 27.2889 14.0958C27.8717 14.1909 28.8944 14.4169 29.5485 14.6072C30.2026 14.7974 31.2134 15.1542 31.8081 15.404C32.3908 15.6537 33.2946 16.0937 33.806 16.3791C34.3055 16.6527 34.7693 16.8905 34.8406 16.8905C34.9001 16.8905 34.7693 16.1889 34.5433 15.3445C34.3173 14.4882 33.9368 13.2752 33.6989 12.633C33.4611 12.0027 32.9616 10.8373 32.5811 10.0524C32.2005 9.26748 31.5583 8.11391 31.1421 7.49551C30.7258 6.8771 29.9291 5.91382 29.3701 5.35487C28.8112 4.79593 28.0263 4.15374 27.6457 3.92779C27.2533 3.70183 26.5873 3.39263 26.1592 3.23803C25.6359 3.04775 25.0413 2.94072 24.3158 2.91693C23.7212 2.89315 23.0315 2.91693 22.7698 2.97639C22.5082 3.02396 21.9968 3.17856 21.64 3.32127ZM19.9156 16.177C19.3924 16.3197 18.9524 16.4386 18.9405 16.4505C18.9167 16.4624 18.9643 16.7478 19.0237 17.0689C19.0951 17.4019 19.3448 18.0084 19.5946 18.4246C19.8681 18.8884 20.4746 19.5901 21.1644 20.2561C21.9136 20.9696 22.5082 21.4334 22.9482 21.6237C23.5072 21.8734 23.7093 21.9091 24.3158 21.8496C24.7559 21.8021 25.2078 21.6594 25.5051 21.481C25.7667 21.3145 26.4921 20.6842 27.1106 20.0658C27.8241 19.3641 28.383 18.6863 28.6209 18.2462C28.8231 17.8657 29.0252 17.2948 29.0728 16.9856L29.156 16.4267C28.3593 16.2126 27.7409 16.0818 27.2889 15.9867C26.8251 15.8915 25.5764 15.7964 24.4942 15.7607C23.412 15.7369 22.1514 15.7607 21.6995 15.8321C21.2357 15.8915 20.4389 16.0461 19.9156 16.177ZM11.2818 29.9722H36.7434L37.338 30.5668V47.0972H38.9435C40.5014 47.0972 40.5609 47.1091 40.8463 47.3945C41.0366 47.5848 41.1436 47.8227 41.1436 48.0486C41.1436 48.2627 41.0366 48.5243 40.5609 49H7.48809L7.19078 48.7027C7.0005 48.5124 6.89347 48.2746 6.89347 48.0486C6.89347 47.8345 7.0005 47.5729 7.19078 47.3945C7.4643 47.1091 7.52376 47.0972 10.699 47.0972L10.7109 30.5549L10.9963 30.2695L11.2818 29.9722ZM12.6018 47.0972H35.4352V31.8749H12.6018V47.0972Z" stroke="#B90417" stroke-width="0.6" mask="url(#path-1-outside-1_524_9296)"/>
</svg>
