<svg width="49" height="49" viewBox="0 0 49 49" fill="none" xmlns="http://www.w3.org/2000/svg">
<path d="M1.85 27.7941L1.85 27.7944C1.85603 30.7525 2.52814 33.6708 3.81586 36.3299C5.04152 38.8609 6.79456 41.0944 8.95383 42.8794H3.22727C2.86168 42.8794 2.51126 43.0256 2.25305 43.2855C1.99487 43.5454 1.85 43.8976 1.85 44.2647C1.85 44.6318 1.99487 44.984 2.25305 45.2439C2.51126 45.5038 2.86168 45.65 3.22727 45.65H39.2273C39.5929 45.65 39.9433 45.5038 40.2015 45.2439C40.4597 44.984 40.6045 44.6318 40.6045 44.2647C40.6045 43.8976 40.4597 43.5454 40.2015 43.2855C39.9433 43.0256 39.5929 42.8794 39.2273 42.8794H33.5006C36.2822 40.579 38.3781 37.5464 39.5528 34.1169C41.5774 34.0331 43.4946 33.1716 44.9085 31.7076C46.3467 30.2184 47.1508 28.2234 47.15 26.1471V24.5C47.15 22.3856 46.3155 20.3576 44.8298 18.8622C43.3441 17.3668 41.3288 16.5265 39.2273 16.5265H3.22727C2.86168 16.5265 2.51126 16.6727 2.25305 16.9326C1.99487 17.1924 1.85 17.5447 1.85 17.9118L1.85 27.7941ZM13.3045 4.73529V11.3235C13.3045 11.6906 13.4494 12.0429 13.7076 12.3027C13.9658 12.5626 14.3162 12.7088 14.6818 12.7088C15.0474 12.7088 15.3978 12.5626 15.656 12.3027C15.9142 12.0429 16.0591 11.6906 16.0591 11.3235V4.73529C16.0591 4.36821 15.9142 4.01596 15.656 3.75609C15.3978 3.49619 15.0474 3.35 14.6818 3.35C14.3162 3.35 13.9658 3.49619 13.7076 3.75609C13.4494 4.01596 13.3045 4.36821 13.3045 4.73529ZM21.2273 12.7088C21.5929 12.7088 21.9433 12.5626 22.2015 12.3027C22.4597 12.0429 22.6045 11.6906 22.6045 11.3235V4.73529C22.6045 4.36821 22.4597 4.01596 22.2015 3.75609C21.9433 3.49619 21.5929 3.35 21.2273 3.35C20.8617 3.35 20.5113 3.49619 20.253 3.75609C19.9949 4.01596 19.85 4.36821 19.85 4.73529V11.3235C19.85 11.6906 19.9949 12.0429 20.253 12.3027C20.5113 12.5626 20.8617 12.7088 21.2273 12.7088ZM27.7727 12.7088C28.1383 12.7088 28.4887 12.5626 28.747 12.3027C29.0051 12.0429 29.15 11.6906 29.15 11.3235V4.73529C29.15 4.36821 29.0051 4.01596 28.747 3.75609C28.4887 3.49619 28.1383 3.35 27.7727 3.35C27.4071 3.35 27.0567 3.49619 26.7985 3.75609C26.5403 4.01596 26.3955 4.36821 26.3955 4.73529V11.3235C26.3955 11.6906 26.5403 12.0429 26.7985 12.3027C27.0567 12.5626 27.4071 12.7088 27.7727 12.7088ZM4.60455 19.2971H37.85V27.7938C37.8436 30.9519 36.9523 34.0441 35.2786 36.7152C33.611 39.3766 31.2342 41.5124 28.4195 42.8794H14.0351C11.2204 41.5124 8.84349 39.3766 7.17592 36.7152C5.5023 34.0442 4.61103 30.9521 4.60455 27.794V19.2971ZM43.2807 21.2739C44.0023 22.1923 44.3951 23.3289 44.3955 24.5V26.1471C44.3954 27.3777 43.9621 28.5684 43.1727 29.5077C42.43 30.3914 41.4173 30.9988 40.2965 31.2374C40.5013 30.1014 40.6044 28.949 40.6045 27.7941V19.4869C41.6607 19.7809 42.5987 20.4059 43.2807 21.2739Z" fill="#B90417" stroke="#B90417" stroke-width="0.3"/>
</svg>
