<svg width="49" height="49" viewBox="0 0 49 49" fill="none" xmlns="http://www.w3.org/2000/svg">
<path d="M42.5 20H40.9306C40.5537 15.9029 38.6597 12.0944 35.62 9.32153C32.5804 6.54866 28.6144 5.01147 24.5 5.01147C20.3856 5.01147 16.4196 6.54866 13.38 9.32153C10.3403 12.0944 8.44627 15.9029 8.06937 20H6.5C6.10218 20 5.72064 20.158 5.43934 20.4393C5.15804 20.7206 5 21.1022 5 21.5C5.00659 25.0672 5.9883 28.5648 7.83896 31.6144C9.68962 34.664 12.3388 37.1496 15.5 38.8025V39.5C15.5 40.2956 15.8161 41.0587 16.3787 41.6213C16.9413 42.1839 17.7044 42.5 18.5 42.5H30.5C31.2956 42.5 32.0587 42.1839 32.6213 41.6213C33.1839 41.0587 33.5 40.2956 33.5 39.5V38.8025C36.6612 37.1496 39.3104 34.664 41.161 31.6144C43.0117 28.5648 43.9934 25.0672 44 21.5C44 21.1022 43.842 20.7206 43.5607 20.4393C43.2794 20.158 42.8978 20 42.5 20ZM37.9137 20H28.2725C30.0911 17.2717 32.8424 15.3003 36.0106 14.4556C37.0465 16.1406 37.6964 18.034 37.9137 20ZM33.0275 11.0431C33.3713 11.3244 33.7006 11.6212 34.0156 11.9337C30.0226 13.3384 26.7228 16.2253 24.8 19.9962H19.2687C20.2063 17.3683 21.9323 15.0939 24.2109 13.4837C26.4896 11.8735 29.2098 11.0061 32 11C32.3431 11 32.6862 11.0169 33.0275 11.0431ZM24.5 8C25.7037 8.00109 26.9018 8.16315 28.0625 8.48187C25.2358 9.18307 22.6439 10.617 20.548 12.6392C18.4521 14.6613 16.9263 17.2002 16.1244 20H11.0862C11.4583 16.7016 13.0312 13.6555 15.5051 11.4424C17.9789 9.22928 21.1807 8.00394 24.5 8ZM31.3738 36.5C31.1121 36.6202 30.8906 36.8132 30.7356 37.0559C30.5807 37.2986 30.4989 37.5808 30.5 37.8688V39.5H18.5V37.8688C18.5011 37.5808 18.4193 37.2986 18.2644 37.0559C18.1094 36.8132 17.8879 36.6202 17.6262 36.5C14.9883 35.2861 12.7161 33.3997 11.0377 31.0302C9.35926 28.6606 8.33363 25.8912 8.06375 23H40.9306C40.6613 25.8906 39.6365 28.6596 37.9591 31.0291C36.2817 33.3986 34.0106 35.2854 31.3738 36.5Z" fill="#B90417"/>
</svg>
