<svg width="48" height="48" viewBox="0 0 48 48" fill="none" xmlns="http://www.w3.org/2000/svg">
<path d="M4.50011 16.5H43.5001M3.32073 17.6447L22.7973 42.9066C22.9388 43.0911 23.1209 43.2406 23.3295 43.3435C23.5381 43.4463 23.7675 43.4998 24.0001 43.4998C24.2327 43.4998 24.4621 43.4463 24.6707 43.3435C24.8793 43.2406 25.0614 43.0911 25.2029 42.9066L44.6795 17.6447C44.871 17.3954 44.9821 17.0936 44.998 16.7797C45.0139 16.4657 44.9339 16.1543 44.7685 15.8869L38.162 5.22281C38.026 5.00212 37.8358 4.81987 37.6095 4.69336C37.3833 4.56685 37.1284 4.50029 36.8692 4.5H11.131C10.8718 4.50029 10.617 4.56685 10.3907 4.69336C10.1644 4.81987 9.97424 5.00212 9.83823 5.22281L3.23167 15.8869C3.06635 16.1543 2.98632 16.4657 3.00223 16.7797C3.01814 17.0936 3.12923 17.3954 3.32073 17.6447Z" stroke="#B90417" stroke-width="2.5" stroke-linecap="round" stroke-linejoin="round"/>
<path d="M37.5 6L33 16.5M33 16.5L24 4.5L15 16.5M33 16.5L24 42L15 16.5M10.5 6L15 16.5" stroke="#B90417" stroke-width="2.5" stroke-linecap="round" stroke-linejoin="round"/>
</svg>
