<svg width="48" height="48" viewBox="0 0 48 48" fill="none" xmlns="http://www.w3.org/2000/svg">
<path d="M14.2001 24.0875V15.3032C14.2001 14.7795 14.3831 14.3326 14.7492 13.9626C15.1137 13.5926 15.5573 13.4075 16.08 13.4075C16.6028 13.4075 17.0464 13.5926 17.4109 13.9626C17.7769 14.3326 17.96 14.7795 17.96 15.3032V24.0875C17.96 24.6112 17.7769 25.058 17.4109 25.428C17.0448 25.7981 16.6012 25.9831 16.08 25.9831C15.5589 25.9831 15.1152 25.7981 14.7492 25.428C14.3831 25.058 14.2001 24.6112 14.2001 24.0875ZM24.3141 27.1708V5.90033C24.3141 5.3735 24.4964 4.92508 24.8609 4.55505C25.2269 4.18502 25.6705 4 26.1917 4C26.7144 4 27.1581 4.18502 27.5226 4.55505C27.8886 4.92508 28.0717 5.3735 28.0717 5.90033V27.1708C28.0717 27.8042 27.8793 28.2793 27.4946 28.596C27.1084 28.9128 26.6764 29.0711 26.1987 29.0711C25.721 29.0711 25.2866 28.9128 24.8958 28.596C24.5049 28.2793 24.311 27.8042 24.3141 27.1708ZM4 32.2085V24.7154C4 24.1886 4.18226 23.7402 4.54677 23.3701C4.91283 23.0001 5.35722 22.8151 5.87994 22.8151C6.40267 22.8151 6.84629 23.0001 7.2108 23.3701C7.57531 23.7402 7.75756 24.1886 7.75756 24.7154V32.2109C7.75756 32.8443 7.56522 33.3186 7.18055 33.6338C6.79587 33.9505 6.36389 34.1089 5.8846 34.1089C5.40686 34.1089 4.97255 33.9505 4.58167 33.6338C4.19389 33.3186 4 32.8443 4 32.2109M6.52443 46C6.00481 46 5.64573 45.7609 5.44718 45.2827C5.24864 44.806 5.33861 44.3756 5.71708 43.9915L14.8097 34.8027C15.1463 34.4609 15.5612 34.2704 16.0544 34.2312C16.5477 34.192 16.9859 34.3433 17.369 34.6851L24.3141 40.7177L40.0261 24.833H35.8567C35.5263 24.833 35.2502 24.7201 35.0284 24.4943C34.8066 24.2686 34.6949 23.9887 34.6933 23.6547C34.6918 23.3208 34.8035 23.0417 35.0284 22.8174C35.2533 22.5932 35.5294 22.4811 35.8567 22.4811H42.1201C42.6536 22.4811 43.1004 22.663 43.4602 23.0268C43.8201 23.3905 44 23.8421 44 24.3815V30.7127C44 31.0467 43.8883 31.3258 43.665 31.55C43.4416 31.7742 43.1647 31.8871 42.8343 31.8887C42.504 31.8902 42.2279 31.7774 42.006 31.55C41.7842 31.3227 41.6733 31.0436 41.6733 30.7127V26.4982L25.6101 42.7356C25.2735 43.0758 24.8585 43.2655 24.3653 43.3047C23.872 43.3439 23.4338 43.1926 23.0507 42.8508L16.1056 36.8182L7.36436 45.6566C7.26508 45.7507 7.14022 45.8315 6.98976 45.8989C6.8393 45.9663 6.68419 46 6.52443 46Z" fill="#B90417"/>
</svg>
