<svg width="49" height="49" viewBox="0 0 49 49" fill="none" xmlns="http://www.w3.org/2000/svg">
<path d="M5.9693 4.43486C6.11649 3.54839 6.57412 2.74316 7.2604 2.16307C7.94668 1.58298 8.81688 1.26584 9.71547 1.26833C10.6494 1.26833 11.5043 1.60287 12.1688 2.15695C12.8895 1.58142 13.7845 1.26806 14.7069 1.26833C15.6664 1.26833 16.5492 1.60054 17.245 2.15695C17.9327 1.58123 18.8014 1.26655 19.6983 1.26833C20.5969 1.26584 21.4671 1.58298 22.1534 2.16307C22.8396 2.74316 23.2973 3.54839 23.4445 4.43486C23.8719 7.05079 24.5805 11.8714 24.5805 15.2076C24.5817 16.7766 24.2085 18.3232 23.4919 19.7191C22.7753 21.1149 21.736 22.3196 20.4603 23.2331C19.7169 23.7674 19.3533 24.4121 19.3533 24.9639C19.3533 25.008 19.3545 25.0382 19.3568 25.0731C19.459 26.3462 20.5149 39.5641 20.5149 41.9244C20.5149 43.4648 19.903 44.9421 18.8138 46.0313C17.7246 47.1205 16.2473 47.7325 14.7069 47.7325C13.1665 47.7325 11.6892 47.1205 10.6 46.0313C9.51078 44.9421 8.89887 43.4648 8.89887 41.9244C8.89887 39.5641 9.95476 26.3462 10.0558 25.0731C10.0591 25.0368 10.0606 25.0003 10.0605 24.9639C10.0605 24.4121 9.69805 23.7674 8.95346 23.2331C7.67779 22.3196 6.63849 21.1149 5.9219 19.7191C5.2053 18.3232 4.83209 16.7766 4.83325 15.2076C4.83325 11.8714 5.54183 7.05079 5.9693 4.43486ZM18.7725 16.0788C18.7725 16.4639 18.6195 16.8332 18.3472 17.1055C18.0749 17.3778 17.7056 17.5308 17.3205 17.5308C16.9354 17.5308 16.5661 17.3778 16.2938 17.1055C16.0215 16.8332 15.8685 16.4639 15.8685 16.0788V5.33394C15.8685 5.02586 15.7461 4.7304 15.5283 4.51256C15.3104 4.29472 15.015 4.17233 14.7069 4.17233C14.3988 4.17233 14.1033 4.29472 13.8855 4.51256C13.6677 4.7304 13.5453 5.02586 13.5453 5.33394V16.0788C13.5453 16.4639 13.3923 16.8332 13.12 17.1055C12.8477 17.3778 12.4784 17.5308 12.0933 17.5308C11.7082 17.5308 11.3389 17.3778 11.0666 17.1055C10.7943 16.8332 10.6413 16.4639 10.6413 16.0788V5.09813C10.6413 4.85259 10.5437 4.61711 10.3701 4.44349C10.1965 4.26987 9.96101 4.17233 9.71547 4.17233C9.26477 4.17233 8.90235 4.48945 8.83498 4.90414C8.40518 7.5375 7.73726 12.1398 7.73726 15.2076C7.73612 16.3155 7.99958 17.4077 8.50569 18.3932C9.01181 19.3788 9.74597 20.2293 10.6471 20.8739C11.8319 21.7242 12.9645 23.1425 12.9645 24.9627C12.9645 25.0766 12.961 25.1834 12.9517 25.3054C12.8402 26.6842 11.8029 39.7174 11.8029 41.9244C11.8029 42.6946 12.1088 43.4333 12.6534 43.9779C13.198 44.5225 13.9367 44.8285 14.7069 44.8285C15.4771 44.8285 16.2157 44.5225 16.7603 43.9779C17.3049 43.4333 17.6109 42.6946 17.6109 41.9244C17.6109 39.7174 16.5736 26.6842 16.4632 25.3054C16.4544 25.1918 16.4497 25.0778 16.4493 24.9639C16.4493 23.1425 17.5819 21.723 18.7667 20.8739C19.6678 20.2293 20.402 19.3788 20.9081 18.3932C21.4142 17.4077 21.6776 16.3155 21.6765 15.2076C21.6765 12.1398 21.0086 7.5375 20.5788 4.90414C20.5429 4.69743 20.4346 4.51026 20.2733 4.37615C20.1119 4.24205 19.9081 4.1698 19.6983 4.17233C19.4528 4.17233 19.2173 4.26987 19.0437 4.44349C18.87 4.61711 18.7725 4.85259 18.7725 5.09813V16.0788ZM39.1006 4.20951V23.0484C39.1006 23.7337 39.3189 26.9165 39.5594 30.4071L39.5756 30.6441C39.9009 35.3672 40.2622 40.6362 40.2622 41.9244C40.2622 42.6946 39.9562 43.4333 39.4116 43.9779C38.867 44.5225 38.1283 44.8285 37.3581 44.8285C36.588 44.8285 35.8493 44.5225 35.3047 43.9779C34.7601 43.4333 34.4541 42.6946 34.4541 41.9244C34.4541 40.7837 34.7387 36.1327 35.0315 31.6791C35.2032 29.0729 35.3801 26.467 35.5623 23.8615L35.6123 23.1506C35.6263 22.9518 35.5992 22.7522 35.5328 22.5643C35.4664 22.3764 35.3619 22.2042 35.2261 22.0584C35.0902 21.9126 34.9257 21.7964 34.743 21.7169C34.5602 21.6374 34.363 21.5964 34.1637 21.5964H30.6789C30.4479 21.5964 30.2263 21.5046 30.0629 21.3412C29.8995 21.1778 29.8077 20.9562 29.8077 20.7252V14.3364C29.8077 11.7915 30.7623 9.33915 32.4829 7.46408C34.2036 5.58901 36.565 4.42764 39.1006 4.20951ZM32.6072 24.5004L32.534 25.5598C32.4248 27.1419 32.2785 29.2769 32.1344 31.4886C31.8463 35.8725 31.5501 40.6595 31.5501 41.9244C31.5501 43.4648 32.162 44.9421 33.2513 46.0313C34.3405 47.1205 35.8178 47.7325 37.3581 47.7325C38.8985 47.7325 40.3758 47.1205 41.465 46.0313C42.5542 44.9421 43.1662 43.4648 43.1662 41.9244C43.1662 40.5201 42.8003 35.1941 42.4831 30.5965L42.4727 30.4455C42.2195 26.7609 42.0046 23.6176 42.0046 23.0484V2.72033C42.0046 1.91882 41.3541 1.26833 40.5526 1.26833H39.9718C32.7547 1.26833 26.9037 7.11932 26.9037 14.3364V20.7252C26.9037 21.7264 27.3015 22.6867 28.0095 23.3947C28.7174 24.1027 29.6777 24.5004 30.6789 24.5004H32.6072Z" fill="#B90417"/>
</svg>
