<svg width="49" height="49" viewBox="0 0 49 49" fill="none" xmlns="http://www.w3.org/2000/svg">
<path d="M7.6538 28.9306V42.2229C7.6538 42.6146 7.8094 42.9902 8.08638 43.2672C8.36335 43.5442 8.73902 43.6998 9.13072 43.6998H38.6692C39.0609 43.6998 39.4365 43.5442 39.7135 43.2672C39.9905 42.9902 40.1461 42.6146 40.1461 42.2229V28.9306M26.8538 28.9306V43.6998M7.6538 33.3613H26.8538M4.69995 15.6383L9.13072 5.2998H38.6692L43.1 15.6383H4.69995ZM4.69995 15.6383V18.5921C4.69995 20.1589 5.32237 21.6616 6.43027 22.7695C7.53818 23.8774 9.04083 24.4998 10.6076 24.4998H11.4347C13.0015 24.4998 14.5042 23.8774 15.6121 22.7695C16.72 21.6616 17.3424 20.1589 17.3424 18.5921V15.6383" stroke="#B90417" stroke-width="2.5" stroke-linecap="round" stroke-linejoin="round"/>
<path d="M30.5462 15.6382V18.592M30.5462 18.592C30.5462 20.1588 29.9238 21.6615 28.8159 22.7694C27.708 23.8773 26.2053 24.4997 24.6385 24.4997H23.1616C21.5948 24.4997 20.0921 23.8773 18.9842 22.7694C17.8763 21.6615 17.2539 20.1588 17.2539 18.592V15.6382M30.5462 18.592C30.5462 20.1588 31.1686 21.6615 32.2765 22.7694C33.3844 23.8773 34.8871 24.4997 36.4539 24.4997H37.1924C38.7592 24.4997 40.2618 23.8773 41.3697 22.7694C42.4776 21.6615 43.1001 20.1588 43.1001 18.592V15.6382" stroke="#B90417" stroke-width="2.5" stroke-linecap="round" stroke-linejoin="round"/>
</svg>
