<svg width="65" height="64" viewBox="0 0 65 64" fill="none" xmlns="http://www.w3.org/2000/svg">
<path d="M49.759 14.0294C48.9725 14.8233 48.2563 15.547 47.5412 16.2669C38.1585 8.34998 25.3302 8.83693 16.6168 16.2373C15.8796 15.5248 15.1449 14.8159 14.4102 14.1058C22.7093 5.94851 38.8329 4.1844 49.759 14.0294Z" fill="url(#paint0_linear_928_975)"/>
<path d="M21.1684 20.9603C20.4928 20.1775 19.8259 19.4057 19.1602 18.634C25.3993 12.5416 37.5804 11.8019 45.0079 18.6168C44.2929 19.3219 43.573 20.0308 42.7482 20.8432C39.7366 18.5021 36.1861 17.0967 32.1167 17.0795C28.0276 17.0622 24.4611 18.4429 21.1684 20.9603Z" fill="url(#paint1_linear_928_975)"/>
<path d="M32.0908 50.1148C29.2258 50.1148 26.3608 50.1333 23.4958 50.1098C19.3451 50.0766 16.1349 47.6184 14.9822 43.6217C13.6508 39.0025 12.3305 34.3807 10.9929 29.764C10.7427 28.8986 10.8462 28.1478 11.5551 27.5474C12.2085 26.9939 12.9716 26.9803 13.8888 27.4895C16.8844 29.155 19.8567 30.8661 22.8782 32.486C29.0015 35.7689 35.1629 35.7676 41.2862 32.4909C44.3077 30.8747 47.2837 29.171 50.2707 27.4895C51.0782 27.0346 51.8524 26.9483 52.6056 27.5462C53.3662 28.1503 53.418 28.938 53.164 29.8157C51.8117 34.4942 50.4766 39.1763 49.1254 43.8547C48.0554 47.5604 44.733 50.0741 40.8115 50.1123C37.9046 50.1419 34.9977 50.1185 32.0908 50.1185C32.0908 50.1172 32.0908 50.116 32.0908 50.1148Z" fill="url(#paint2_linear_928_975)"/>
<path d="M32.0571 33.9776C29.366 33.9233 26.8511 33.3784 24.5039 32.3072C23.7716 31.9731 23.0443 31.6291 22.3046 31.3061C22.0494 31.194 21.9459 31.0793 22.0272 30.8291C23.3105 26.9063 27.4921 23.9341 32.5071 24.14C36.3768 24.299 39.1728 25.9201 41.0713 28.6224C41.5422 29.2918 41.8257 30.0524 42.1549 30.7847C42.2116 30.9092 42.1265 31.1804 42.0033 31.2396C39.6523 32.3811 37.2805 33.4931 34.5018 33.7816C33.6894 33.8654 32.872 33.9135 32.0571 33.9776Z" fill="url(#paint3_linear_928_975)"/>
<mask id="mask0_928_975" style="mask-type:luminance" maskUnits="userSpaceOnUse" x="21" y="24" width="22" height="10">
<path d="M32.0532 33.9776C29.3621 33.9233 26.8472 33.3784 24.5 32.3072C23.7677 31.9731 23.0404 31.6291 22.3007 31.3061C22.0455 31.194 21.9419 31.0793 22.0233 30.8291C23.3066 26.9063 27.4882 23.9341 32.502 24.14C36.3717 24.299 39.1676 25.9201 41.0661 28.6224C41.5371 29.2918 41.8206 30.0524 42.1498 30.7847C42.2065 30.9092 42.1214 31.1804 41.9981 31.2396C39.6472 32.3811 37.2753 33.4931 34.4979 33.7816C33.6855 33.8654 32.8681 33.9135 32.0532 33.9776Z" fill="white"/>
</mask>
<g mask="url(#mask0_928_975)">
<path d="M-67.896 45.5866L-67.785 45.8775L101.828 -32.249L101.717 -32.5387L-67.896 45.5866Z" fill="url(#paint4_linear_928_975)"/>
<path d="M-67.125 47.145L-67.014 47.4347L102.599 -30.6917L102.488 -30.9814L-67.125 47.145Z" fill="url(#paint5_linear_928_975)"/>
<path d="M-66.3545 48.7036L-66.2435 48.9933L103.369 -29.1331L103.258 -29.4229L-66.3545 48.7036Z" fill="url(#paint6_linear_928_975)"/>
<path d="M-65.5781 50.2622L-65.4672 50.5519L104.145 -27.5746L104.035 -27.8643L-65.5781 50.2622Z" fill="url(#paint7_linear_928_975)"/>
<path d="M-64.8076 51.8208L-64.6967 52.1105L104.916 -26.016L104.805 -26.3057L-64.8076 51.8208Z" fill="url(#paint8_linear_928_975)"/>
<path d="M-64.0366 53.3781L-63.9257 53.6678L105.687 -24.4587L105.576 -24.7484L-64.0366 53.3781Z" fill="url(#paint9_linear_928_975)"/>
<path d="M-63.2656 54.9367L-63.1559 55.2264L106.457 -22.8989L106.347 -23.1898L-63.2656 54.9367Z" fill="url(#paint10_linear_928_975)"/>
<path d="M-62.4951 56.4953L-62.3854 56.785L107.227 -21.3403L107.118 -21.6312L-62.4951 56.4953Z" fill="url(#paint11_linear_928_975)"/>
<path d="M-61.7188 58.054L-61.609 58.3449L108.004 -19.7816L107.894 -20.0713L-61.7188 58.054Z" fill="url(#paint12_linear_928_975)"/>
<path d="M-60.9482 59.6112L-60.8373 59.9022L108.775 -18.2243L108.664 -18.514L-60.9482 59.6112Z" fill="url(#paint13_linear_928_975)"/>
<path d="M-60.1772 61.171L-60.0663 61.4607L109.546 -16.6657L109.435 -16.9554L-60.1772 61.171Z" fill="url(#paint14_linear_928_975)"/>
<path d="M-59.4062 62.7284L-59.2953 63.0181L110.317 -15.1084L110.206 -15.3981L-59.4062 62.7284Z" fill="url(#paint15_linear_928_975)"/>
<path d="M-58.6357 64.287L-58.5248 64.5767L111.088 -13.5498L110.977 -13.8395L-58.6357 64.287Z" fill="url(#paint16_linear_928_975)"/>
<path d="M-57.8647 65.8456L-57.7538 66.1353L111.859 -11.9912L111.748 -12.2809L-57.8647 65.8456Z" fill="url(#paint17_linear_928_975)"/>
<path d="M-57.0889 67.4042L-56.9779 67.6939L112.635 -10.4326L112.524 -10.7223L-57.0889 67.4042Z" fill="url(#paint18_linear_928_975)"/>
<path d="M-56.3179 68.9614L-56.2069 69.2511L113.406 -8.8741L113.295 -9.16504L-56.3179 68.9614Z" fill="url(#paint19_linear_928_975)"/>
<path d="M-55.5469 70.52L-55.4359 70.8097L114.177 -7.31551L114.066 -7.60645L-55.5469 70.52Z" fill="url(#paint20_linear_928_975)"/>
<path d="M-54.7764 72.0787L-54.6666 72.3697L114.946 -5.75681L114.836 -6.04651L-54.7764 72.0787Z" fill="url(#paint21_linear_928_975)"/>
<path d="M-54 73.6373L-53.8903 73.9283L115.722 -4.19821L115.613 -4.48792L-54 73.6373Z" fill="url(#paint22_linear_928_975)"/>
<path d="M-53.2295 75.1958L-53.1185 75.4855L116.494 -2.64096L116.383 -2.93066L-53.2295 75.1958Z" fill="url(#paint23_linear_928_975)"/>
<path d="M-52.4585 76.7544L-52.3475 77.0441L117.265 -1.08237L117.154 -1.37207L-52.4585 76.7544Z" fill="url(#paint24_linear_928_975)"/>
<path d="M-51.6875 78.313L-51.5765 78.6027L118.036 0.476229L117.925 0.186523L-51.6875 78.313Z" fill="url(#paint25_linear_928_975)"/>
<path d="M-50.917 79.8703L-50.806 80.16L118.807 2.03348L118.696 1.74377L-50.917 79.8703Z" fill="url(#paint26_linear_928_975)"/>
<path d="M-50.146 81.4288L-50.035 81.7185L119.578 3.59207L119.467 3.30237L-50.146 81.4288Z" fill="url(#paint27_linear_928_975)"/>
<path d="M-49.3701 82.9874L-49.2592 83.2772L120.353 5.1519L120.243 4.86096L-49.3701 82.9874Z" fill="url(#paint28_linear_928_975)"/>
<path d="M-48.5991 84.546L-48.4882 84.8357L121.124 6.71049L121.014 6.41956L-48.5991 84.546Z" fill="url(#paint29_linear_928_975)"/>
<path d="M-47.8281 86.1034L-47.7172 86.3943L121.895 8.26785L121.785 7.97815L-47.8281 86.1034Z" fill="url(#paint30_linear_928_975)"/>
<path d="M-47.0576 87.662L-46.9479 87.9529L122.665 9.82645L122.555 9.53674L-47.0576 87.662Z" fill="url(#paint31_linear_928_975)"/>
<path d="M-46.2812 89.2218L-46.1715 89.5115L123.441 11.385L123.331 11.0953L-46.2812 89.2218Z" fill="url(#paint32_linear_928_975)"/>
<path d="M-45.5107 90.7804L-45.401 91.0701L124.212 12.9436L124.102 12.6539L-45.5107 90.7804Z" fill="url(#paint33_linear_928_975)"/>
<path d="M-44.7397 92.3378L-44.6288 92.6275L124.984 14.501L124.873 14.2113L-44.7397 92.3378Z" fill="url(#paint34_linear_928_975)"/>
<path d="M-43.9688 93.8964L-43.8578 94.1861L125.755 16.0596L125.644 15.7699L-43.9688 93.8964Z" fill="url(#paint35_linear_928_975)"/>
<path d="M-43.1982 95.455L-43.0873 95.7447L126.525 17.6182L126.414 17.3285L-43.1982 95.455Z" fill="url(#paint36_linear_928_975)"/>
<path d="M-42.4272 97.0136L-42.3163 97.3033L127.296 19.178L127.185 18.8871L-42.4272 97.0136Z" fill="url(#paint37_linear_928_975)"/>
<path d="M-41.6514 98.5708L-41.5404 98.8605L128.072 20.7353L127.961 20.4443L-41.6514 98.5708Z" fill="url(#paint38_linear_928_975)"/>
<path d="M-40.8804 100.13L-40.7694 100.42L128.843 22.294L128.732 22.0043L-40.8804 100.13Z" fill="url(#paint39_linear_928_975)"/>
<path d="M-40.1094 101.688L-39.9984 101.979L129.614 23.8526L129.503 23.5629L-40.1094 101.688Z" fill="url(#paint40_linear_928_975)"/>
<path d="M-39.3389 103.247L-39.2279 103.536L130.385 25.4098L130.274 25.1201L-39.3389 103.247Z" fill="url(#paint41_linear_928_975)"/>
<path d="M-38.5679 104.805L-38.4582 105.095L131.154 26.9684L131.045 26.6787L-38.5679 104.805Z" fill="url(#paint42_linear_928_975)"/>
<path d="M-42.6917 -34.2627L-42.8076 -33.9681L125.645 37.9526L125.761 37.658L-42.6917 -34.2627Z" fill="url(#paint43_linear_928_975)"/>
<path d="M-43.1864 -32.5479L-43.3022 -32.2532L125.15 39.6674L125.266 39.3728L-43.1864 -32.5479Z" fill="url(#paint44_linear_928_975)"/>
<path d="M-43.6864 -30.833L-43.8022 -30.5384L124.652 41.3823L124.766 41.0889L-43.6864 -30.833Z" fill="url(#paint45_linear_928_975)"/>
<path d="M-44.181 -29.1168L-44.2969 -28.8234L124.157 43.0972L124.272 42.8038L-44.181 -29.1168Z" fill="url(#paint46_linear_928_975)"/>
<path d="M-44.6773 -27.402L-44.792 -27.1086L123.661 44.8121L123.775 44.5187L-44.6773 -27.402Z" fill="url(#paint47_linear_928_975)"/>
<path d="M-45.1773 -25.6871L-45.292 -25.3937L123.161 46.5281L123.275 46.2335L-45.1773 -25.6871Z" fill="url(#paint48_linear_928_975)"/>
<path d="M-45.672 -23.9723L-45.7866 -23.6777L122.666 48.243L122.781 47.9483L-45.672 -23.9723Z" fill="url(#paint49_linear_928_975)"/>
<path d="M-46.1666 -22.2574L-46.2812 -21.9628L122.171 49.9578L122.286 49.6632L-46.1666 -22.2574Z" fill="url(#paint50_linear_928_975)"/>
<path d="M-46.6666 -20.5426L-46.7812 -20.248L121.671 51.6727L121.787 51.3793L-46.6666 -20.5426Z" fill="url(#paint51_linear_928_975)"/>
<path d="M-47.1617 -18.8265L-47.2764 -18.5331L121.176 53.3875L121.292 53.0941L-47.1617 -18.8265Z" fill="url(#paint52_linear_928_975)"/>
<path d="M-47.6605 -17.1117L-47.7764 -16.8183L120.676 55.1024L120.792 54.809L-47.6605 -17.1117Z" fill="url(#paint53_linear_928_975)"/>
<path d="M-48.1551 -15.3981L-48.271 -15.1047L120.182 56.8172L120.297 56.5226L-48.1551 -15.3981Z" fill="url(#paint54_linear_928_975)"/>
<path d="M-48.6497 -13.682L-48.7656 -13.3874L119.687 58.5333L119.803 58.2386L-48.6497 -13.682Z" fill="url(#paint55_linear_928_975)"/>
<path d="M-49.1497 -11.9684L-49.2656 -11.6737L119.188 60.2469L119.303 59.9523L-49.1497 -11.9684Z" fill="url(#paint56_linear_928_975)"/>
<path d="M-49.6449 -10.2535L-49.7607 -9.9589L118.693 61.9617L118.808 61.6683L-49.6449 -10.2535Z" fill="url(#paint57_linear_928_975)"/>
<path d="M-50.1407 -8.53748L-50.2554 -8.24407L118.197 63.6766L118.312 63.3832L-50.1407 -8.53748Z" fill="url(#paint58_linear_928_975)"/>
<path d="M-50.6407 -6.82263L-50.7554 -6.52923L117.697 65.3914L117.812 65.098L-50.6407 -6.82263Z" fill="url(#paint59_linear_928_975)"/>
<path d="M-51.1354 -5.10779L-51.25 -4.81438L117.203 67.1075L117.317 66.8129L-51.1354 -5.10779Z" fill="url(#paint60_linear_928_975)"/>
<path d="M-51.6354 -3.39294L-51.75 -3.09831L116.703 68.8223L116.817 68.5277L-51.6354 -3.39294Z" fill="url(#paint61_linear_928_975)"/>
<path d="M-52.1305 -1.6781L-52.2451 -1.38347L116.207 70.5372L116.323 70.2425L-52.1305 -1.6781Z" fill="url(#paint62_linear_928_975)"/>
<path d="M-52.6251 0.0367432L-52.7397 0.331377L115.713 72.252L115.829 71.9586L-52.6251 0.0367432Z" fill="url(#paint63_linear_928_975)"/>
<path d="M-53.1239 1.75293L-53.2397 2.04633L115.213 73.967L115.329 73.6736L-53.1239 1.75293Z" fill="url(#paint64_linear_928_975)"/>
<path d="M-53.6185 3.46777L-53.7344 3.76118L114.718 75.6818L114.834 75.3884L-53.6185 3.46777Z" fill="url(#paint65_linear_928_975)"/>
<path d="M-54.1136 5.18262L-54.2295 5.47602L114.223 77.3979L114.339 77.1033L-54.1136 5.18262Z" fill="url(#paint66_linear_928_975)"/>
<path d="M-54.6136 6.89746L-54.7295 7.19209L113.724 79.1127L113.839 78.8181L-54.6136 6.89746Z" fill="url(#paint67_linear_928_975)"/>
<path d="M-55.1082 8.6123L-55.2241 8.90694L113.23 80.8276L113.344 80.5329L-55.1082 8.6123Z" fill="url(#paint68_linear_928_975)"/>
<path d="M-55.6041 10.3271L-55.7188 10.6218L112.734 82.5424L112.848 82.249L-55.6041 10.3271Z" fill="url(#paint69_linear_928_975)"/>
<path d="M-56.1041 12.0433L-56.2188 12.3367L112.234 84.2574L112.348 83.964L-56.1041 12.0433Z" fill="url(#paint70_linear_928_975)"/>
<path d="M-56.5992 13.7582L-56.7139 14.0516L111.739 85.9735L111.853 85.6788L-56.5992 13.7582Z" fill="url(#paint71_linear_928_975)"/>
<path d="M-57.0992 15.473L-57.2139 15.7664L111.239 87.6883L111.353 87.3937L-57.0992 15.473Z" fill="url(#paint72_linear_928_975)"/>
<path d="M-57.5938 17.1879L-57.7085 17.4825L110.744 89.4031L110.86 89.1085L-57.5938 17.1879Z" fill="url(#paint73_linear_928_975)"/>
<path d="M-58.0885 18.9027L-58.2031 19.1973L110.249 91.118L110.365 90.8233L-58.0885 18.9027Z" fill="url(#paint74_linear_928_975)"/>
<path d="M-58.5872 20.6176L-58.7031 20.9122L109.749 92.8328L109.865 92.5394L-58.5872 20.6176Z" fill="url(#paint75_linear_928_975)"/>
<path d="M-59.0824 22.3336L-59.1982 22.627L109.254 94.5477L109.37 94.2543L-59.0824 22.3336Z" fill="url(#paint76_linear_928_975)"/>
<path d="M-59.577 24.0485L-59.6929 24.3419L108.76 96.2637L108.876 95.9691L-59.577 24.0485Z" fill="url(#paint77_linear_928_975)"/>
<path d="M-60.077 25.7633L-60.1929 26.0567L108.261 97.9786L108.376 97.6839L-60.077 25.7633Z" fill="url(#paint78_linear_928_975)"/>
<path d="M-60.5729 27.4781L-60.6875 27.7728L107.765 99.6934L107.88 99.3988L-60.5729 27.4781Z" fill="url(#paint79_linear_928_975)"/>
<path d="M-61.068 29.1918L-61.1826 29.4864L107.27 101.407L107.385 101.112L-61.068 29.1918Z" fill="url(#paint80_linear_928_975)"/>
<path d="M-61.568 30.9066L-61.6826 31.2013L106.77 103.122L106.885 102.828L-61.568 30.9066Z" fill="url(#paint81_linear_928_975)"/>
</g>
<path d="M19.0362 39.3301H19.9829L21.7618 42.11L23.5124 39.3301H24.4641V42.7017H23.9476V39.7899H23.8231L21.9677 42.7017H21.5584L19.6846 39.7899H19.5502V42.7017H19.0337V39.3301H19.0362Z" fill="#005DB2"/>
<path d="M26.1837 40.3145C26.5486 40.3145 26.8198 40.3256 26.9973 40.349C27.1736 40.3712 27.3129 40.4118 27.414 40.471C27.5681 40.5647 27.6791 40.6942 27.7456 40.8593C27.8122 41.0245 27.8455 41.2464 27.8455 41.525C27.8455 41.8357 27.806 42.0724 27.7259 42.2364C27.668 42.3609 27.5891 42.4595 27.4892 42.531C27.3906 42.6025 27.2599 42.6543 27.0997 42.6863C26.9468 42.7172 26.6953 42.7319 26.3452 42.7319C26.016 42.7319 25.7658 42.7209 25.5944 42.6974C25.4231 42.6752 25.2838 42.6346 25.174 42.5754C25.0138 42.4891 24.8991 42.3633 24.8313 42.1982C24.7635 42.033 24.729 41.8037 24.729 41.5115C24.729 41.1836 24.7771 40.9358 24.8745 40.7669C24.9756 40.5881 25.1149 40.4686 25.2949 40.4081C25.4724 40.3477 25.7695 40.3157 26.1837 40.3145ZM26.2416 40.6843C26.0012 40.6843 25.8225 40.6929 25.7041 40.7102C25.5858 40.7274 25.4921 40.757 25.4243 40.8014C25.3454 40.8532 25.2862 40.937 25.248 41.0529C25.2098 41.1688 25.1913 41.329 25.1913 41.5337C25.1913 41.7654 25.216 41.9368 25.2665 42.049C25.317 42.1599 25.4009 42.2388 25.5168 42.2844C25.6511 42.3362 25.9174 42.3621 26.3156 42.3621C26.5757 42.3621 26.7643 42.3522 26.8839 42.3338C27.0035 42.3153 27.0972 42.2807 27.165 42.2302C27.2414 42.176 27.2969 42.0946 27.3302 41.9849C27.3647 41.8739 27.3807 41.7174 27.3807 41.5127C27.3807 41.2711 27.3536 41.0948 27.3006 40.9851C27.2427 40.8655 27.1453 40.7854 27.0084 40.7459C26.8716 40.704 26.6164 40.6843 26.2416 40.6843Z" fill="#005DB2"/>
<path d="M28.104 39.3301H28.5416V40.6208H28.5047C28.5836 40.5012 28.6957 40.4199 28.84 40.3779C28.9842 40.336 29.2221 40.3151 29.555 40.3151C29.9396 40.3151 30.2145 40.3274 30.3785 40.3533C30.5437 40.3779 30.6805 40.4297 30.789 40.5049C30.9222 40.6011 31.0171 40.7207 31.0738 40.8649C31.1367 41.0276 31.1687 41.2582 31.1687 41.5565C31.1687 41.8881 31.1194 42.1359 31.0208 42.3011C30.8876 42.5255 30.6472 42.6598 30.2996 42.7054C30.1578 42.7227 29.931 42.7326 29.6179 42.7326C29.2443 42.7326 28.9854 42.7116 28.84 42.6697C28.6945 42.6278 28.5799 42.5402 28.496 42.4096H28.5379V42.7042H28.1052V39.3301H28.104ZM29.5624 40.6837C29.3232 40.6837 29.1445 40.6935 29.0261 40.712C28.9065 40.7305 28.8153 40.7638 28.7524 40.8107C28.6723 40.8661 28.6156 40.9475 28.5823 41.056C28.5478 41.1645 28.5318 41.3223 28.5318 41.5281C28.5318 41.8006 28.5601 41.9867 28.6168 42.0878C28.6797 42.1988 28.7833 42.2715 28.9263 42.3085C29.0693 42.3455 29.343 42.3627 29.7461 42.3627C29.9556 42.3627 30.1147 42.3529 30.2244 42.3319C30.3341 42.3122 30.4266 42.2752 30.503 42.2234C30.5708 42.1741 30.6226 42.0964 30.6559 41.9867C30.6904 41.8782 30.7076 41.7254 30.7076 41.5294C30.7076 41.2668 30.6781 41.0782 30.6177 40.9648C30.556 40.8513 30.4586 40.7761 30.3242 40.7379C30.1886 40.7022 29.9359 40.6837 29.5624 40.6837Z" fill="#005DB2"/>
<path d="M31.5337 40.3457H31.9713V42.704H31.5337V40.3457Z" fill="#005DB2"/>
<path d="M32.4399 42.7024V39.3307H35.6341L35.1915 39.7683H32.9565V40.7718H35.5145L35.1767 41.2095H32.9565V42.7011H32.4399V42.7024Z" fill="#ED2629"/>
<path d="M36.9937 40.3151C37.3587 40.3151 37.6299 40.3262 37.8074 40.3496C37.9837 40.3718 38.123 40.4125 38.2241 40.4716C38.3782 40.5653 38.4891 40.6948 38.5557 40.86C38.6223 41.0252 38.6555 41.247 38.6555 41.5257C38.6555 41.8363 38.6161 42.073 38.536 42.237C38.478 42.3615 38.3991 42.4601 38.2993 42.5316C38.2006 42.6031 38.07 42.6549 37.9097 42.6869C37.7568 42.7178 37.5054 42.7326 37.1552 42.7326C36.8261 42.7326 36.5758 42.7215 36.4045 42.698C36.2331 42.6758 36.0938 42.6352 35.9841 42.576C35.8238 42.4897 35.7092 42.364 35.6414 42.1988C35.5736 42.0336 35.5391 41.8043 35.5391 41.5121C35.5391 41.1842 35.5871 40.9364 35.6845 40.7675C35.7856 40.5887 35.9249 40.4692 36.1049 40.4088C36.2824 40.3483 36.5795 40.3163 36.9937 40.3151ZM37.0517 40.6849C36.8113 40.6849 36.6325 40.6935 36.5142 40.7108C36.3958 40.728 36.3022 40.7576 36.2343 40.802C36.1554 40.8538 36.0963 40.9376 36.0581 41.0535C36.0198 41.1694 36.0014 41.3296 36.0014 41.5343C36.0014 41.7661 36.026 41.9374 36.0766 42.0496C36.1271 42.1605 36.2109 42.2394 36.3268 42.2851C36.4612 42.3368 36.7275 42.3627 37.1257 42.3627C37.3858 42.3627 37.5744 42.3529 37.694 42.3344C37.8135 42.3159 37.9072 42.2814 37.975 42.2308C38.0515 42.1766 38.1069 42.0952 38.1402 41.9855C38.1748 41.8745 38.1908 41.718 38.1908 41.5133C38.1908 41.2717 38.1637 41.0954 38.1106 40.9857C38.0527 40.8661 37.9553 40.786 37.8185 40.7465C37.6816 40.7046 37.4265 40.6849 37.0517 40.6849Z" fill="#ED2629"/>
<path d="M38.9087 40.3447H39.3463V40.6923H39.3118C39.387 40.5493 39.5078 40.4507 39.6742 40.3964C39.8419 40.3422 40.1168 40.3151 40.5014 40.3151C40.8355 40.3151 41.0858 40.3336 41.251 40.3718C41.4162 40.41 41.5481 40.479 41.6455 40.5801C41.7182 40.659 41.77 40.7576 41.7983 40.8735C41.8279 40.9894 41.8427 41.1558 41.8427 41.374V42.703H41.4051V41.5294C41.4051 41.3235 41.3964 41.1768 41.3792 41.0893C41.3619 41.0017 41.3299 40.929 41.2806 40.8698C41.2239 40.8032 41.1351 40.7564 41.0143 40.7281C40.8935 40.6997 40.7085 40.6849 40.4583 40.6849C40.1809 40.6849 39.9664 40.7046 39.8148 40.7441C39.6632 40.7835 39.5497 40.8476 39.4758 40.9352C39.424 41.0017 39.3895 41.0769 39.3722 41.1608C39.355 41.2446 39.3463 41.3937 39.3463 41.6095V42.703H38.9087V40.3447Z" fill="#ED2629"/>
<path d="M44.6764 41.9412H45.1288C45.1227 42.2395 45.0204 42.4467 44.8243 42.5613C44.6283 42.676 44.2918 42.7327 43.8172 42.7327C43.4288 42.7327 43.133 42.7179 42.9271 42.6871C42.7212 42.6562 42.5646 42.6032 42.4562 42.5293C42.2158 42.3591 42.0962 42.0263 42.0962 41.5307C42.0962 41.1855 42.1467 40.9254 42.2466 40.7516C42.344 40.5815 42.4858 40.4656 42.6707 40.4064C42.8556 40.346 43.1589 40.3164 43.5792 40.3164C43.9799 40.3164 44.2721 40.3386 44.4557 40.3817C44.6394 40.4261 44.7861 40.51 44.8958 40.6345C44.9846 40.738 45.0462 40.8576 45.0795 40.992C45.1128 41.1264 45.1313 41.3396 45.1338 41.6293H42.561C42.5708 41.8956 42.6263 42.0805 42.7261 42.1841C42.789 42.2506 42.895 42.2975 43.043 42.3234C43.1909 42.3493 43.4362 42.3628 43.7777 42.3628C44.0354 42.3628 44.2227 42.3505 44.3386 42.3271C44.4545 42.3037 44.5396 42.263 44.5926 42.2038C44.6357 42.157 44.6641 42.0694 44.6764 41.9412ZM44.6567 41.2694C44.6555 41.0659 44.5987 40.9217 44.4866 40.8354C44.4138 40.7799 44.309 40.7417 44.1734 40.7183C44.0378 40.6961 43.8357 40.6838 43.5681 40.6838C43.3339 40.6838 43.1576 40.6949 43.0393 40.7158C42.9197 40.7368 42.8272 40.7725 42.7631 40.8231C42.6546 40.9094 42.5918 41.0573 42.5757 41.2681H44.6567V41.2694Z" fill="#ED2629"/>
<path d="M31.9713 39.4987H31.5337V39.9807H31.9713V39.4987Z" fill="#ED2629"/>
<path d="M14.2856 53.7197H13.7407V56.692H16.517V56.2124H14.2856V53.7197Z" fill="#FFA201"/>
<path d="M16.5962 56.774H13.6572V53.639H14.3661V56.133H16.5962V56.774ZM13.82 56.6113H16.4322V56.2957H14.2021V53.8018H13.82V56.6113Z" fill="#FFA201"/>
<path d="M20.5598 55.2174C20.5598 54.945 20.5487 54.7144 20.5277 54.5344C20.5104 54.3902 20.487 54.2743 20.455 54.1905C20.4229 54.103 20.3724 54.0265 20.307 53.9649C20.2047 53.8626 20.0444 53.7923 19.8312 53.759C19.6265 53.727 19.2764 53.7109 18.7907 53.7109C18.199 53.7122 17.7749 53.7319 17.5283 53.7701C17.2288 53.8157 17.034 53.9661 16.9502 54.2176C16.8861 54.4149 16.854 54.7354 16.854 55.1964C16.854 55.5786 16.8688 55.856 16.8971 56.0199C16.9267 56.1913 16.9896 56.3294 17.0845 56.428C17.1573 56.5032 17.2399 56.5599 17.3323 56.5969C17.4223 56.6326 17.5394 56.6573 17.6923 56.6721C17.7774 56.6795 17.9512 56.6856 18.2088 56.693C18.4702 56.7004 18.7093 56.7029 18.9177 56.7029C19.3529 56.7029 19.6734 56.6856 19.8706 56.6524C20.0765 56.6178 20.2281 56.5476 20.3243 56.4465C20.4143 56.354 20.4772 56.2098 20.5117 56.0199C20.5437 55.8363 20.5598 55.5675 20.5598 55.2174ZM20.0087 55.226C20.0087 55.5244 19.9927 55.7635 19.9618 55.9349C19.9372 56.068 19.8669 56.1395 19.7399 56.1617C19.539 56.1987 19.2099 56.2172 18.7624 56.2172C18.4468 56.2172 18.1657 56.2086 17.9253 56.1925C17.786 56.1827 17.6849 56.1703 17.6257 56.1543C17.574 56.1408 17.5345 56.1198 17.5086 56.0902C17.4852 56.0643 17.4519 56.0014 17.4322 55.8412C17.4149 55.7031 17.4063 55.4775 17.4063 55.1693C17.4063 54.8722 17.4223 54.6442 17.4531 54.4901C17.4692 54.4075 17.4938 54.3495 17.5296 54.3187C17.5666 54.2866 17.6294 54.262 17.7182 54.2472C17.8982 54.2164 18.1854 54.2003 18.5725 54.2003C18.9559 54.2016 19.2209 54.2053 19.3566 54.2102C19.4897 54.2151 19.6093 54.2262 19.7141 54.2423C19.8632 54.2657 19.9434 54.3335 19.9656 54.4555C19.9951 54.5998 20.0087 54.8599 20.0087 55.226Z" fill="#FFA201"/>
<path d="M18.9197 56.7838C18.7077 56.7838 18.4685 56.7801 18.2084 56.7739C17.9507 56.7678 17.7757 56.7604 17.6881 56.753C17.5266 56.737 17.4021 56.7111 17.3047 56.6729C17.2024 56.6322 17.11 56.5693 17.0286 56.4855C16.9226 56.3745 16.8535 56.2241 16.8203 56.0355C16.7907 55.8666 16.7759 55.5843 16.7759 55.1985C16.7759 54.7288 16.8079 54.4008 16.8757 54.195C16.9707 53.9114 17.1864 53.7425 17.5193 53.692C17.7695 53.6538 18.1985 53.634 18.7927 53.6328C19.2834 53.6328 19.6384 53.6488 19.8467 53.6821C20.0773 53.7179 20.2536 53.7955 20.3682 53.9102C20.4409 53.9805 20.4977 54.0668 20.5346 54.1654C20.5679 54.2554 20.5938 54.3774 20.6111 54.5278C20.632 54.7103 20.6431 54.9433 20.6431 55.2206C20.6431 55.5744 20.6259 55.8494 20.5926 56.0367C20.5556 56.2439 20.4853 56.4016 20.3842 56.5064C20.277 56.6211 20.1081 56.6975 19.8862 56.7357C19.6853 56.7665 19.3598 56.7838 18.9197 56.7838ZM18.7939 53.7931C18.2071 53.7943 17.7868 53.814 17.5439 53.851C17.2727 53.8929 17.105 54.0211 17.0298 54.2443C16.9682 54.4329 16.9386 54.7448 16.9386 55.1972C16.9386 55.5744 16.9522 55.8469 16.9805 56.0072C17.0076 56.1625 17.0631 56.2858 17.1457 56.3721C17.2098 56.4386 17.2838 56.4892 17.3639 56.5212C17.4465 56.5545 17.5575 56.5767 17.7017 56.5915C17.7843 56.5989 17.9618 56.6051 18.2121 56.6125C18.9986 56.6334 19.5718 56.6223 19.8578 56.5742C20.0452 56.5422 20.1821 56.4818 20.2659 56.393C20.3448 56.3117 20.4003 56.1822 20.4323 56.0072C20.4644 55.8284 20.4804 55.5634 20.4804 55.2194C20.4804 54.9494 20.4705 54.7226 20.4496 54.5463C20.4335 54.4082 20.4101 54.2998 20.3818 54.2221C20.3534 54.1469 20.3103 54.0803 20.2536 54.0273C20.1623 53.9361 20.0169 53.8744 19.8209 53.8436C19.6211 53.8091 19.276 53.7931 18.7939 53.7931ZM18.7644 56.2969C18.4475 56.2969 18.164 56.2882 17.9224 56.2722C17.7757 56.2623 17.6733 56.2488 17.608 56.2315C17.5402 56.213 17.4872 56.1834 17.4514 56.1428C17.4058 56.0934 17.3738 55.9973 17.3553 55.8494C17.338 55.7088 17.3294 55.4795 17.3294 55.1676C17.3294 54.8644 17.3454 54.6301 17.3775 54.4723C17.3972 54.3713 17.4305 54.2997 17.4798 54.2554C17.5291 54.2122 17.6031 54.1826 17.7091 54.1641C17.8928 54.1321 18.185 54.1161 18.5757 54.1161C18.9591 54.1173 19.2242 54.121 19.3635 54.1259C19.4991 54.1309 19.6224 54.142 19.7309 54.158C19.9146 54.1863 20.0218 54.28 20.0502 54.4378C20.0785 54.5882 20.0921 54.8533 20.0921 55.2243C20.0921 55.5276 20.076 55.7705 20.044 55.9468C20.0132 56.1132 19.9158 56.2118 19.7555 56.2389C19.5496 56.2784 19.2156 56.2969 18.7644 56.2969ZM18.5757 54.28C18.1936 54.28 17.9113 54.2948 17.7362 54.3256C17.6388 54.3417 17.6018 54.3651 17.5883 54.3774C17.5784 54.386 17.555 54.4156 17.5377 54.5032C17.5082 54.6523 17.4921 54.8755 17.4921 55.1676C17.4921 55.4734 17.5008 55.6953 17.5168 55.8296C17.5365 55.9948 17.5698 56.0318 17.571 56.033C17.5871 56.0503 17.6129 56.0639 17.6487 56.0737C17.6857 56.0836 17.7658 56.0972 17.9322 56.1095C18.1702 56.1255 18.45 56.1341 18.7631 56.1341C19.2057 56.1341 19.5287 56.1156 19.7259 56.0799C19.8196 56.0639 19.864 56.0182 19.8825 55.9184C19.9121 55.752 19.9281 55.519 19.9281 55.2256C19.9281 54.8644 19.9145 54.6092 19.8887 54.4674C19.8776 54.4033 19.8467 54.3417 19.705 54.3195C19.6027 54.3034 19.4855 54.2936 19.3561 54.2887C19.2205 54.285 18.9579 54.2813 18.5757 54.28Z" fill="#FFA201"/>
<path d="M22.5988 53.7197L20.9136 56.692H21.5287L21.8665 56.0965H24.0448L24.3802 56.692H24.9867L23.3064 53.7197H22.5988ZM22.9847 54.198L23.781 55.617H22.1303L22.939 54.198H22.9847Z" fill="#FFA201"/>
<path d="M25.1259 56.774H24.332L23.9967 56.1786H21.9133L21.5755 56.774H20.7729L22.5506 53.639H23.3532L25.1259 56.774ZM24.4269 56.6113H24.8461L23.2582 53.8018H22.6455L21.0528 56.6113H21.4806L21.8184 56.0159H24.0928L24.4269 56.6113ZM23.9215 55.699H21.9909L22.8921 54.1174H23.0326L23.9215 55.699ZM22.272 55.5363H23.6429L22.9624 54.3245L22.272 55.5363Z" fill="#FFA201"/>
<path d="M25.4971 54.1988H26.916V56.6927H27.4609V54.1988H28.8749V53.7205H25.4971V54.1988Z" fill="#FFA201"/>
<path d="M27.5414 56.7746H26.8325V54.2807H25.4136V53.6384H28.9554V54.2807H27.5426V56.7746H27.5414ZM26.9952 56.6119H27.3774V54.118H28.7902V53.8024H25.5751V54.118H26.994V56.6119H26.9952Z" fill="#FFA201"/>
<path d="M32.2648 54.9131H29.8325V53.7197H29.2876V56.692H29.8325V55.3926H32.2648V56.692H32.8109V53.7197H32.2648V54.9131Z" fill="#FFA201"/>
<path d="M32.8914 56.774H32.1825V55.4747H29.913V56.774H29.2041V53.639H29.913V54.8336H32.1825V53.639H32.8914V56.774ZM32.3452 56.6113H32.7274V53.8018H32.3452V54.9963H29.7502V53.8018H29.3681V56.6113H29.7502V55.3119H32.3452V56.6113Z" fill="#FFA201"/>
<path d="M35.2401 53.1993L36.0279 53.5136L36.193 53.1598L35.2401 52.6827L34.2822 53.1598L34.4474 53.5136L35.2401 53.1993Z" fill="#FFA201"/>
<path d="M36.0676 53.6185L35.238 53.2868L34.4046 53.6185L34.1729 53.1229L35.238 52.5916L36.2994 53.1229L36.0676 53.6185ZM34.3874 53.1981L34.486 53.4101L35.2367 53.1118L35.9838 53.4101L36.0824 53.1981L35.2355 52.774L34.3874 53.1981Z" fill="#FFA201"/>
<path d="M34.883 53.7197L33.1978 56.692H33.8129L34.1507 56.0965H36.329L36.6643 56.692H37.2709L35.5906 53.7197H34.883ZM35.2688 54.198L36.0652 55.617H34.4145L35.2232 54.198H35.2688Z" fill="#FFA201"/>
<path d="M37.4101 56.774H36.6162L36.2809 56.1786H34.1975L33.8597 56.774H33.0571L34.8348 53.639H35.6373L37.4101 56.774ZM36.7123 56.6113H37.1315L35.5437 53.8018H34.931L33.3382 56.6113H33.766L34.1038 56.0159H36.3783L36.7123 56.6113ZM36.2057 55.699H34.2751L35.1763 54.1174H35.3168L36.2057 55.699ZM34.5562 55.5363H35.927L35.2466 54.3245L34.5562 55.5363Z" fill="#FFA201"/>
<path d="M36.4495 52.44L35.4632 51.7484L35.2031 52.1182L36.1918 52.7803L36.4495 52.44Z" fill="#FFA201"/>
<path d="M36.2115 52.8913L35.0884 52.1393L35.4447 51.6351L36.5677 52.4216L36.2115 52.8913ZM35.3189 52.0962L36.1745 52.6694L36.3347 52.4574L35.4841 51.8607L35.3189 52.0962Z" fill="#FFA201"/>
<path d="M40.7737 56.1606L38.35 53.7345L38.334 53.7197H37.5845V56.692H38.1294V54.2609L40.5432 56.6759L40.558 56.692H41.3186V53.7197H40.7737V56.1606Z" fill="#FFA201"/>
<path d="M41.3978 56.774H40.5225L40.4831 56.7346L38.2098 54.4588V56.774H37.501V53.639H38.3664L38.4058 53.6785L40.6902 55.9641V53.639H41.399V56.774H41.3978ZM40.5903 56.6113H41.2351V53.8018H40.8529V56.3586L38.2986 53.8018H37.6637V56.6113H38.0459V54.0644L40.5903 56.6113Z" fill="#FFA201"/>
<path d="M45.8622 53.7205H42.4844V54.1988H43.9033V56.6927H44.4494V54.1988H45.8622V53.7205Z" fill="#FFA201"/>
<path d="M44.5287 56.7746H43.8198V54.2807H42.4009V53.6384H45.9427V54.2807H44.5299V56.7746H44.5287ZM43.9825 56.6119H44.3647V54.118H45.7775V53.8024H42.5624V54.118H43.9813V56.6119H43.9825Z" fill="#FFA201"/>
<path d="M47.0392 53.7197L45.354 56.692H45.9692L46.3069 56.0965H48.4853L48.8206 56.692H49.4271L47.7468 53.7197H47.0392ZM47.4263 54.198L48.2227 55.617H46.572L47.3807 54.198H47.4263Z" fill="#FFA201"/>
<path d="M49.5663 56.774H48.7724L48.4371 56.1786H46.3537L46.0159 56.774H45.2134L46.9911 53.639H47.7936L49.5663 56.774ZM48.8674 56.6113H49.2865L47.6987 53.8018H47.086L45.4932 56.6113H45.921L46.2588 56.0159H48.5333L48.8674 56.6113ZM48.3607 55.699H46.4301L47.3313 54.1174H47.4718L48.3607 55.699ZM46.7112 55.5363H48.0821L47.4016 54.3245L46.7112 55.5363Z" fill="#FFA201"/>
<path d="M47.5913 52.9673L46.6051 52.2758L46.3438 52.6456L47.3337 53.3076L47.5913 52.9673Z" fill="#FFA201"/>
<path d="M47.3521 53.4187L46.229 52.6667L46.5853 52.1625L47.7083 52.949L47.3521 53.4187ZM46.4595 52.6248L47.3151 53.198L47.4754 52.986L46.6247 52.3893L46.4595 52.6248Z" fill="#FFA201"/>
<path d="M50.4262 53.7197H49.8813V56.692H50.4262V53.7197Z" fill="#FFA201"/>
<path d="M50.5067 56.774H49.7979V53.639H50.5067V56.774ZM49.9618 56.6113H50.344V53.8018H49.9618V56.6113Z" fill="#FFA201"/>
<path d="M43.0938 0V2.27449H53.1594C57.9562 2.27449 61.8826 6.19967 61.8826 10.9964V22.1716H64.1571V10.205C64.1571 4.59212 59.5638 0 53.9509 0H43.0938Z" fill="#005DB2"/>
<path d="M21.0634 0V2.27449H10.9977C6.20091 2.27449 2.27449 6.19967 2.27449 10.9964V22.1716H0V10.205C0 4.59212 4.59335 0 10.2062 0H21.0634Z" fill="#005DB2"/>
<path d="M43.0938 63.9998V61.7253H53.1594C57.9562 61.7253 61.8826 57.8001 61.8826 53.0033V41.8281H64.1571V53.7948C64.1571 59.4076 59.5638 63.9998 53.9509 63.9998H43.0938Z" fill="#ED2629"/>
<path d="M21.0634 63.9998V61.7253H10.9977C6.20091 61.7253 2.27449 57.8001 2.27449 53.0033V41.8281H0V53.7948C0 59.4076 4.59335 63.9998 10.2062 63.9998H21.0634Z" fill="#ED2629"/>
<defs>
<linearGradient id="paint0_linear_928_975" x1="32.0848" y1="4.43754" x2="32.0848" y2="25.2721" gradientUnits="userSpaceOnUse">
<stop stop-color="#FFCD01"/>
<stop offset="0.1066" stop-color="#FCAD07"/>
<stop offset="0.3367" stop-color="#F56E14"/>
<stop offset="0.505" stop-color="#F1461C"/>
<stop offset="0.5922" stop-color="#EF371F"/>
<stop offset="0.7722" stop-color="#C62419"/>
<stop offset="0.9145" stop-color="#AC1714"/>
<stop offset="1" stop-color="#A31313"/>
</linearGradient>
<linearGradient id="paint1_linear_928_975" x1="32.0836" y1="4.43769" x2="32.0836" y2="25.2722" gradientUnits="userSpaceOnUse">
<stop stop-color="#FFCD01"/>
<stop offset="0.1066" stop-color="#FCAD07"/>
<stop offset="0.3367" stop-color="#F56E14"/>
<stop offset="0.505" stop-color="#F1461C"/>
<stop offset="0.5922" stop-color="#EF371F"/>
<stop offset="0.7722" stop-color="#C62419"/>
<stop offset="0.9145" stop-color="#AC1714"/>
<stop offset="1" stop-color="#A31313"/>
</linearGradient>
<linearGradient id="paint2_linear_928_975" x1="32.0861" y1="58.6754" x2="32.0861" y2="20.4106" gradientUnits="userSpaceOnUse">
<stop offset="0.2415" stop-color="#FFCD01"/>
<stop offset="0.3319" stop-color="#FDB701"/>
<stop offset="0.4472" stop-color="#FBA100"/>
<stop offset="0.5759" stop-color="#FA9300"/>
<stop offset="0.7272" stop-color="#F98A00"/>
<stop offset="0.957" stop-color="#F98700"/>
</linearGradient>
<linearGradient id="paint3_linear_928_975" x1="32.0857" y1="21.9841" x2="32.0857" y2="38.9316" gradientUnits="userSpaceOnUse">
<stop offset="0.2415" stop-color="#FFCD01"/>
<stop offset="0.392" stop-color="#FEC601"/>
<stop offset="0.6053" stop-color="#FDB401"/>
<stop offset="0.8549" stop-color="#FA9600"/>
<stop offset="0.957" stop-color="#F98700"/>
</linearGradient>
<linearGradient id="paint4_linear_928_975" x1="20.1852" y1="50.3116" x2="18.431" y2="26.5335" gradientUnits="userSpaceOnUse">
<stop offset="0.2415" stop-color="#FFCD01"/>
<stop offset="0.957" stop-color="#F37321"/>
</linearGradient>
<linearGradient id="paint5_linear_928_975" x1="20.8378" y1="50.2624" x2="19.0836" y2="26.4843" gradientUnits="userSpaceOnUse">
<stop offset="0.2415" stop-color="#FFCD01"/>
<stop offset="0.957" stop-color="#F37321"/>
</linearGradient>
<linearGradient id="paint6_linear_928_975" x1="21.4899" y1="50.2146" x2="19.7357" y2="26.4364" gradientUnits="userSpaceOnUse">
<stop offset="0.2415" stop-color="#FFCD01"/>
<stop offset="0.957" stop-color="#F37321"/>
</linearGradient>
<linearGradient id="paint7_linear_928_975" x1="22.1478" y1="50.1667" x2="20.3937" y2="26.3886" gradientUnits="userSpaceOnUse">
<stop offset="0.2415" stop-color="#FFCD01"/>
<stop offset="0.957" stop-color="#F37321"/>
</linearGradient>
<linearGradient id="paint8_linear_928_975" x1="22.8" y1="50.1189" x2="21.0458" y2="26.3407" gradientUnits="userSpaceOnUse">
<stop offset="0.2415" stop-color="#FFCD01"/>
<stop offset="0.957" stop-color="#F37321"/>
</linearGradient>
<linearGradient id="paint9_linear_928_975" x1="23.4525" y1="50.0697" x2="21.6984" y2="26.2916" gradientUnits="userSpaceOnUse">
<stop offset="0.2415" stop-color="#FFCD01"/>
<stop offset="0.957" stop-color="#F37321"/>
</linearGradient>
<linearGradient id="paint10_linear_928_975" x1="24.1039" y1="50.0219" x2="22.3498" y2="26.2437" gradientUnits="userSpaceOnUse">
<stop offset="0.2415" stop-color="#FFCD01"/>
<stop offset="0.957" stop-color="#F37321"/>
</linearGradient>
<linearGradient id="paint11_linear_928_975" x1="24.756" y1="49.974" x2="23.0019" y2="26.1959" gradientUnits="userSpaceOnUse">
<stop offset="0.2415" stop-color="#FFCD01"/>
<stop offset="0.957" stop-color="#F37321"/>
</linearGradient>
<linearGradient id="paint12_linear_928_975" x1="25.414" y1="49.9263" x2="23.6598" y2="26.1481" gradientUnits="userSpaceOnUse">
<stop offset="0.2415" stop-color="#FFCD01"/>
<stop offset="0.957" stop-color="#F37321"/>
</linearGradient>
<linearGradient id="paint13_linear_928_975" x1="26.0661" y1="49.8771" x2="24.3119" y2="26.099" gradientUnits="userSpaceOnUse">
<stop offset="0.2415" stop-color="#FFCD01"/>
<stop offset="0.957" stop-color="#F37321"/>
</linearGradient>
<linearGradient id="paint14_linear_928_975" x1="26.7187" y1="49.8293" x2="24.9645" y2="26.0511" gradientUnits="userSpaceOnUse">
<stop offset="0.2415" stop-color="#FFCD01"/>
<stop offset="0.957" stop-color="#F37321"/>
</linearGradient>
<linearGradient id="paint15_linear_928_975" x1="27.3713" y1="49.7802" x2="25.6171" y2="26.002" gradientUnits="userSpaceOnUse">
<stop offset="0.2415" stop-color="#FFCD01"/>
<stop offset="0.957" stop-color="#F37321"/>
</linearGradient>
<linearGradient id="paint16_linear_928_975" x1="28.0234" y1="49.7324" x2="26.2692" y2="25.9542" gradientUnits="userSpaceOnUse">
<stop offset="0.2415" stop-color="#FFCD01"/>
<stop offset="0.957" stop-color="#F37321"/>
</linearGradient>
<linearGradient id="paint17_linear_928_975" x1="28.676" y1="49.6845" x2="26.9218" y2="25.9064" gradientUnits="userSpaceOnUse">
<stop offset="0.2415" stop-color="#FFCD01"/>
<stop offset="0.957" stop-color="#F37321"/>
</linearGradient>
<linearGradient id="paint18_linear_928_975" x1="29.3334" y1="49.6367" x2="27.5793" y2="25.8585" gradientUnits="userSpaceOnUse">
<stop offset="0.2415" stop-color="#FFCD01"/>
<stop offset="0.957" stop-color="#F37321"/>
</linearGradient>
<linearGradient id="paint19_linear_928_975" x1="29.986" y1="49.5875" x2="28.2319" y2="25.8093" gradientUnits="userSpaceOnUse">
<stop offset="0.2415" stop-color="#FFCD01"/>
<stop offset="0.957" stop-color="#F37321"/>
</linearGradient>
<linearGradient id="paint20_linear_928_975" x1="30.6386" y1="49.5397" x2="28.8845" y2="25.7615" gradientUnits="userSpaceOnUse">
<stop offset="0.2415" stop-color="#FFCD01"/>
<stop offset="0.957" stop-color="#F37321"/>
</linearGradient>
<linearGradient id="paint21_linear_928_975" x1="31.2895" y1="49.4919" x2="29.5354" y2="25.7138" gradientUnits="userSpaceOnUse">
<stop offset="0.2415" stop-color="#FFCD01"/>
<stop offset="0.957" stop-color="#F37321"/>
</linearGradient>
<linearGradient id="paint22_linear_928_975" x1="31.9475" y1="49.4441" x2="30.1933" y2="25.6659" gradientUnits="userSpaceOnUse">
<stop offset="0.2415" stop-color="#FFCD01"/>
<stop offset="0.957" stop-color="#F37321"/>
</linearGradient>
<linearGradient id="paint23_linear_928_975" x1="32.5996" y1="49.3949" x2="30.8454" y2="25.6167" gradientUnits="userSpaceOnUse">
<stop offset="0.2415" stop-color="#FFCD01"/>
<stop offset="0.957" stop-color="#F37321"/>
</linearGradient>
<linearGradient id="paint24_linear_928_975" x1="33.2522" y1="49.3471" x2="31.498" y2="25.5689" gradientUnits="userSpaceOnUse">
<stop offset="0.2415" stop-color="#FFCD01"/>
<stop offset="0.957" stop-color="#F37321"/>
</linearGradient>
<linearGradient id="paint25_linear_928_975" x1="33.9048" y1="49.2992" x2="32.1506" y2="25.5211" gradientUnits="userSpaceOnUse">
<stop offset="0.2415" stop-color="#FFCD01"/>
<stop offset="0.957" stop-color="#F37321"/>
</linearGradient>
<linearGradient id="paint26_linear_928_975" x1="34.5569" y1="49.25" x2="32.8027" y2="25.4719" gradientUnits="userSpaceOnUse">
<stop offset="0.2415" stop-color="#FFCD01"/>
<stop offset="0.957" stop-color="#F37321"/>
</linearGradient>
<linearGradient id="paint27_linear_928_975" x1="35.2095" y1="49.2022" x2="33.4553" y2="25.424" gradientUnits="userSpaceOnUse">
<stop offset="0.2415" stop-color="#FFCD01"/>
<stop offset="0.957" stop-color="#F37321"/>
</linearGradient>
<linearGradient id="paint28_linear_928_975" x1="35.8669" y1="49.1544" x2="34.1128" y2="25.3762" gradientUnits="userSpaceOnUse">
<stop offset="0.2415" stop-color="#FFCD01"/>
<stop offset="0.957" stop-color="#F37321"/>
</linearGradient>
<linearGradient id="paint29_linear_928_975" x1="36.5195" y1="49.1065" x2="34.7654" y2="25.3284" gradientUnits="userSpaceOnUse">
<stop offset="0.2415" stop-color="#FFCD01"/>
<stop offset="0.957" stop-color="#F37321"/>
</linearGradient>
<linearGradient id="paint30_linear_928_975" x1="37.1721" y1="49.0574" x2="35.418" y2="25.2793" gradientUnits="userSpaceOnUse">
<stop offset="0.2415" stop-color="#FFCD01"/>
<stop offset="0.957" stop-color="#F37321"/>
</linearGradient>
<linearGradient id="paint31_linear_928_975" x1="37.823" y1="49.0096" x2="36.0689" y2="25.2314" gradientUnits="userSpaceOnUse">
<stop offset="0.2415" stop-color="#FFCD01"/>
<stop offset="0.957" stop-color="#F37321"/>
</linearGradient>
<linearGradient id="paint32_linear_928_975" x1="38.481" y1="48.9618" x2="36.7268" y2="25.1836" gradientUnits="userSpaceOnUse">
<stop offset="0.2415" stop-color="#FFCD01"/>
<stop offset="0.957" stop-color="#F37321"/>
</linearGradient>
<linearGradient id="paint33_linear_928_975" x1="39.1331" y1="48.9139" x2="37.3789" y2="25.1357" gradientUnits="userSpaceOnUse">
<stop offset="0.2415" stop-color="#FFCD01"/>
<stop offset="0.957" stop-color="#F37321"/>
</linearGradient>
<linearGradient id="paint34_linear_928_975" x1="39.7857" y1="48.8649" x2="38.0315" y2="25.0867" gradientUnits="userSpaceOnUse">
<stop offset="0.2415" stop-color="#FFCD01"/>
<stop offset="0.957" stop-color="#F37321"/>
</linearGradient>
<linearGradient id="paint35_linear_928_975" x1="40.4382" y1="48.817" x2="38.6841" y2="25.0388" gradientUnits="userSpaceOnUse">
<stop offset="0.2415" stop-color="#FFCD01"/>
<stop offset="0.957" stop-color="#F37321"/>
</linearGradient>
<linearGradient id="paint36_linear_928_975" x1="41.0904" y1="48.7692" x2="39.3362" y2="24.991" gradientUnits="userSpaceOnUse">
<stop offset="0.2415" stop-color="#FFCD01"/>
<stop offset="0.957" stop-color="#F37321"/>
</linearGradient>
<linearGradient id="paint37_linear_928_975" x1="41.743" y1="48.7213" x2="39.9888" y2="24.9432" gradientUnits="userSpaceOnUse">
<stop offset="0.2415" stop-color="#FFCD01"/>
<stop offset="0.957" stop-color="#F37321"/>
</linearGradient>
<linearGradient id="paint38_linear_928_975" x1="42.4004" y1="48.6721" x2="40.6463" y2="24.894" gradientUnits="userSpaceOnUse">
<stop offset="0.2415" stop-color="#FFCD01"/>
<stop offset="0.957" stop-color="#F37321"/>
</linearGradient>
<linearGradient id="paint39_linear_928_975" x1="43.053" y1="48.6244" x2="41.2989" y2="24.8462" gradientUnits="userSpaceOnUse">
<stop offset="0.2415" stop-color="#FFCD01"/>
<stop offset="0.957" stop-color="#F37321"/>
</linearGradient>
<linearGradient id="paint40_linear_928_975" x1="43.7056" y1="48.5766" x2="41.9515" y2="24.7984" gradientUnits="userSpaceOnUse">
<stop offset="0.2415" stop-color="#FFCD01"/>
<stop offset="0.957" stop-color="#F37321"/>
</linearGradient>
<linearGradient id="paint41_linear_928_975" x1="44.3577" y1="48.5274" x2="42.6036" y2="24.7492" gradientUnits="userSpaceOnUse">
<stop offset="0.2415" stop-color="#FFCD01"/>
<stop offset="0.957" stop-color="#F37321"/>
</linearGradient>
<linearGradient id="paint42_linear_928_975" x1="45.0091" y1="48.4795" x2="43.255" y2="24.7014" gradientUnits="userSpaceOnUse">
<stop offset="0.2415" stop-color="#FFCD01"/>
<stop offset="0.957" stop-color="#F37321"/>
</linearGradient>
<linearGradient id="paint43_linear_928_975" x1="44.9174" y1="48.4865" x2="43.1633" y2="24.7084" gradientUnits="userSpaceOnUse">
<stop offset="0.2415" stop-color="#FFCD01"/>
<stop offset="0.957" stop-color="#F37321"/>
</linearGradient>
<linearGradient id="paint44_linear_928_975" x1="44.2997" y1="48.5323" x2="42.5456" y2="24.7541" gradientUnits="userSpaceOnUse">
<stop offset="0.2415" stop-color="#FFCD01"/>
<stop offset="0.957" stop-color="#F37321"/>
</linearGradient>
<linearGradient id="paint45_linear_928_975" x1="43.6767" y1="48.5781" x2="41.9226" y2="24.7999" gradientUnits="userSpaceOnUse">
<stop offset="0.2415" stop-color="#FFCD01"/>
<stop offset="0.957" stop-color="#F37321"/>
</linearGradient>
<linearGradient id="paint46_linear_928_975" x1="43.059" y1="48.6239" x2="41.3049" y2="24.8458" gradientUnits="userSpaceOnUse">
<stop offset="0.2415" stop-color="#FFCD01"/>
<stop offset="0.957" stop-color="#F37321"/>
</linearGradient>
<linearGradient id="paint47_linear_928_975" x1="42.4396" y1="48.6697" x2="40.6855" y2="24.8915" gradientUnits="userSpaceOnUse">
<stop offset="0.2415" stop-color="#FFCD01"/>
<stop offset="0.957" stop-color="#F37321"/>
</linearGradient>
<linearGradient id="paint48_linear_928_975" x1="41.8166" y1="48.7155" x2="40.0625" y2="24.9373" gradientUnits="userSpaceOnUse">
<stop offset="0.2415" stop-color="#FFCD01"/>
<stop offset="0.957" stop-color="#F37321"/>
</linearGradient>
<linearGradient id="paint49_linear_928_975" x1="41.199" y1="48.7612" x2="39.4448" y2="24.9831" gradientUnits="userSpaceOnUse">
<stop offset="0.2415" stop-color="#FFCD01"/>
<stop offset="0.957" stop-color="#F37321"/>
</linearGradient>
<linearGradient id="paint50_linear_928_975" x1="40.5813" y1="48.807" x2="38.8272" y2="25.0288" gradientUnits="userSpaceOnUse">
<stop offset="0.2415" stop-color="#FFCD01"/>
<stop offset="0.957" stop-color="#F37321"/>
</linearGradient>
<linearGradient id="paint51_linear_928_975" x1="39.9583" y1="48.8528" x2="38.2042" y2="25.0746" gradientUnits="userSpaceOnUse">
<stop offset="0.2415" stop-color="#FFCD01"/>
<stop offset="0.957" stop-color="#F37321"/>
</linearGradient>
<linearGradient id="paint52_linear_928_975" x1="39.3401" y1="48.8985" x2="37.586" y2="25.1204" gradientUnits="userSpaceOnUse">
<stop offset="0.2415" stop-color="#FFCD01"/>
<stop offset="0.957" stop-color="#F37321"/>
</linearGradient>
<linearGradient id="paint53_linear_928_975" x1="38.7171" y1="48.9443" x2="36.963" y2="25.1661" gradientUnits="userSpaceOnUse">
<stop offset="0.2415" stop-color="#FFCD01"/>
<stop offset="0.957" stop-color="#F37321"/>
</linearGradient>
<linearGradient id="paint54_linear_928_975" x1="38.0994" y1="48.9888" x2="36.3453" y2="25.2107" gradientUnits="userSpaceOnUse">
<stop offset="0.2415" stop-color="#FFCD01"/>
<stop offset="0.957" stop-color="#F37321"/>
</linearGradient>
<linearGradient id="paint55_linear_928_975" x1="37.4818" y1="49.0358" x2="35.7277" y2="25.2577" gradientUnits="userSpaceOnUse">
<stop offset="0.2415" stop-color="#FFCD01"/>
<stop offset="0.957" stop-color="#F37321"/>
</linearGradient>
<linearGradient id="paint56_linear_928_975" x1="36.8587" y1="49.0804" x2="35.1046" y2="25.3022" gradientUnits="userSpaceOnUse">
<stop offset="0.2415" stop-color="#FFCD01"/>
<stop offset="0.957" stop-color="#F37321"/>
</linearGradient>
<linearGradient id="paint57_linear_928_975" x1="36.2406" y1="49.1261" x2="34.4865" y2="25.348" gradientUnits="userSpaceOnUse">
<stop offset="0.2415" stop-color="#FFCD01"/>
<stop offset="0.957" stop-color="#F37321"/>
</linearGradient>
<linearGradient id="paint58_linear_928_975" x1="35.6217" y1="49.1719" x2="33.8676" y2="25.3937" gradientUnits="userSpaceOnUse">
<stop offset="0.2415" stop-color="#FFCD01"/>
<stop offset="0.957" stop-color="#F37321"/>
</linearGradient>
<linearGradient id="paint59_linear_928_975" x1="34.9987" y1="49.2177" x2="33.2445" y2="25.4395" gradientUnits="userSpaceOnUse">
<stop offset="0.2415" stop-color="#FFCD01"/>
<stop offset="0.957" stop-color="#F37321"/>
</linearGradient>
<linearGradient id="paint60_linear_928_975" x1="34.381" y1="49.2634" x2="32.6269" y2="25.4853" gradientUnits="userSpaceOnUse">
<stop offset="0.2415" stop-color="#FFCD01"/>
<stop offset="0.957" stop-color="#F37321"/>
</linearGradient>
<linearGradient id="paint61_linear_928_975" x1="33.758" y1="49.3092" x2="32.0039" y2="25.531" gradientUnits="userSpaceOnUse">
<stop offset="0.2415" stop-color="#FFCD01"/>
<stop offset="0.957" stop-color="#F37321"/>
</linearGradient>
<linearGradient id="paint62_linear_928_975" x1="33.1398" y1="49.355" x2="31.3857" y2="25.5768" gradientUnits="userSpaceOnUse">
<stop offset="0.2415" stop-color="#FFCD01"/>
<stop offset="0.957" stop-color="#F37321"/>
</linearGradient>
<linearGradient id="paint63_linear_928_975" x1="32.5222" y1="49.4007" x2="30.7681" y2="25.6226" gradientUnits="userSpaceOnUse">
<stop offset="0.2415" stop-color="#FFCD01"/>
<stop offset="0.957" stop-color="#F37321"/>
</linearGradient>
<linearGradient id="paint64_linear_928_975" x1="31.8992" y1="49.4466" x2="30.145" y2="25.6684" gradientUnits="userSpaceOnUse">
<stop offset="0.2415" stop-color="#FFCD01"/>
<stop offset="0.957" stop-color="#F37321"/>
</linearGradient>
<linearGradient id="paint65_linear_928_975" x1="31.2815" y1="49.4924" x2="29.5274" y2="25.7142" gradientUnits="userSpaceOnUse">
<stop offset="0.2415" stop-color="#FFCD01"/>
<stop offset="0.957" stop-color="#F37321"/>
</linearGradient>
<linearGradient id="paint66_linear_928_975" x1="30.6634" y1="49.5381" x2="28.9092" y2="25.76" gradientUnits="userSpaceOnUse">
<stop offset="0.2415" stop-color="#FFCD01"/>
<stop offset="0.957" stop-color="#F37321"/>
</linearGradient>
<linearGradient id="paint67_linear_928_975" x1="30.0403" y1="49.5839" x2="28.2862" y2="25.8057" gradientUnits="userSpaceOnUse">
<stop offset="0.2415" stop-color="#FFCD01"/>
<stop offset="0.957" stop-color="#F37321"/>
</linearGradient>
<linearGradient id="paint68_linear_928_975" x1="29.4227" y1="49.6297" x2="27.6685" y2="25.8515" gradientUnits="userSpaceOnUse">
<stop offset="0.2415" stop-color="#FFCD01"/>
<stop offset="0.957" stop-color="#F37321"/>
</linearGradient>
<linearGradient id="paint69_linear_928_975" x1="28.8038" y1="49.6754" x2="27.0496" y2="25.8973" gradientUnits="userSpaceOnUse">
<stop offset="0.2415" stop-color="#FFCD01"/>
<stop offset="0.957" stop-color="#F37321"/>
</linearGradient>
<linearGradient id="paint70_linear_928_975" x1="28.1807" y1="49.7213" x2="26.4266" y2="25.9432" gradientUnits="userSpaceOnUse">
<stop offset="0.2415" stop-color="#FFCD01"/>
<stop offset="0.957" stop-color="#F37321"/>
</linearGradient>
<linearGradient id="paint71_linear_928_975" x1="27.5626" y1="49.7671" x2="25.8084" y2="25.9889" gradientUnits="userSpaceOnUse">
<stop offset="0.2415" stop-color="#FFCD01"/>
<stop offset="0.957" stop-color="#F37321"/>
</linearGradient>
<linearGradient id="paint72_linear_928_975" x1="26.9395" y1="49.8128" x2="25.1854" y2="26.0347" gradientUnits="userSpaceOnUse">
<stop offset="0.2415" stop-color="#FFCD01"/>
<stop offset="0.957" stop-color="#F37321"/>
</linearGradient>
<linearGradient id="paint73_linear_928_975" x1="26.3219" y1="49.8586" x2="24.5678" y2="26.0805" gradientUnits="userSpaceOnUse">
<stop offset="0.2415" stop-color="#FFCD01"/>
<stop offset="0.957" stop-color="#F37321"/>
</linearGradient>
<linearGradient id="paint74_linear_928_975" x1="25.7042" y1="49.9044" x2="23.9501" y2="26.1262" gradientUnits="userSpaceOnUse">
<stop offset="0.2415" stop-color="#FFCD01"/>
<stop offset="0.957" stop-color="#F37321"/>
</linearGradient>
<linearGradient id="paint75_linear_928_975" x1="25.0812" y1="49.9501" x2="23.3271" y2="26.172" gradientUnits="userSpaceOnUse">
<stop offset="0.2415" stop-color="#FFCD01"/>
<stop offset="0.957" stop-color="#F37321"/>
</linearGradient>
<linearGradient id="paint76_linear_928_975" x1="24.4631" y1="49.9959" x2="22.7089" y2="26.2177" gradientUnits="userSpaceOnUse">
<stop offset="0.2415" stop-color="#FFCD01"/>
<stop offset="0.957" stop-color="#F37321"/>
</linearGradient>
<linearGradient id="paint77_linear_928_975" x1="23.8454" y1="50.0417" x2="22.0913" y2="26.2635" gradientUnits="userSpaceOnUse">
<stop offset="0.2415" stop-color="#FFCD01"/>
<stop offset="0.957" stop-color="#F37321"/>
</linearGradient>
<linearGradient id="paint78_linear_928_975" x1="23.2224" y1="50.0874" x2="21.4682" y2="26.3093" gradientUnits="userSpaceOnUse">
<stop offset="0.2415" stop-color="#FFCD01"/>
<stop offset="0.957" stop-color="#F37321"/>
</linearGradient>
<linearGradient id="paint79_linear_928_975" x1="22.6035" y1="50.1332" x2="20.8493" y2="26.355" gradientUnits="userSpaceOnUse">
<stop offset="0.2415" stop-color="#FFCD01"/>
<stop offset="0.957" stop-color="#F37321"/>
</linearGradient>
<linearGradient id="paint80_linear_928_975" x1="21.9853" y1="50.1777" x2="20.2312" y2="26.3996" gradientUnits="userSpaceOnUse">
<stop offset="0.2415" stop-color="#FFCD01"/>
<stop offset="0.957" stop-color="#F37321"/>
</linearGradient>
<linearGradient id="paint81_linear_928_975" x1="21.3623" y1="50.2235" x2="19.6082" y2="26.4454" gradientUnits="userSpaceOnUse">
<stop offset="0.2415" stop-color="#FFCD01"/>
<stop offset="0.957" stop-color="#F37321"/>
</linearGradient>
</defs>
</svg>
