<svg width="49" height="49" viewBox="0 0 49 49" fill="none" xmlns="http://www.w3.org/2000/svg">
<g clip-path="url(#clip0_529_8693)">
<path d="M17.7001 33.3001C15.9536 34.9099 13.6522 35.7819 11.2775 35.7336C8.90281 35.6853 6.6388 34.7204 4.95927 33.0409C3.27974 31.3614 2.31486 29.0973 2.26655 26.7226C2.21824 24.3479 3.09024 22.0465 4.70008 20.3001L20.3001 4.70008C22.0465 3.09024 24.3479 2.21824 26.7226 2.26655C29.0973 2.31486 31.3614 3.27974 33.0409 4.95927C34.7204 6.6388 35.6853 8.90281 35.7336 11.2775C35.7819 13.6522 34.9099 15.9536 33.3001 17.7001M12.4981 12.4981L20.9981 20.9981" stroke="#B90417" stroke-width="2.8" stroke-linecap="round" stroke-linejoin="round"/>
<path d="M35 30.5V39.5M30.5 35H39.5M47 32C47.0064 35.4929 45.8206 38.8834 43.6386 41.6108C41.4566 44.3383 38.4091 46.2395 35 47C31.5909 46.2395 28.5435 44.3383 26.3615 41.6108C24.1795 38.8834 22.9936 35.4929 23 32V27.5C23 26.7044 23.3161 25.9413 23.8787 25.3787C24.4413 24.8161 25.2044 24.5 26 24.5H44C44.7957 24.5 45.5587 24.8161 46.1213 25.3787C46.684 25.9413 47 26.7044 47 27.5V32Z" stroke="#B90417" stroke-width="2.8" stroke-linecap="round" stroke-linejoin="round"/>
</g>
<defs>
<clipPath id="clip0_529_8693">
<rect width="48" height="48" fill="white" transform="translate(0.5 0.5)"/>
</clipPath>
</defs>
</svg>
