<svg width="48" height="48" viewBox="0 0 48 48" fill="none" xmlns="http://www.w3.org/2000/svg">
<path d="M24 10.928V6.198M24 10.928C26.7699 11.0354 29.3894 12.2155 31.3052 14.2189C33.2209 16.2223 34.2826 18.8921 34.266 21.664V25.264C34.266 30.036 38 31.228 38 33.614C38 34.8 38 36 36.924 36H11.076C10 36 10 34.8 10 33.614C10 31.228 13.734 30.036 13.734 25.264V21.664C13.7174 18.8921 14.7791 16.2223 16.6948 14.2189C18.6106 12.2155 21.2301 11.0354 24 10.928ZM12 10L10 8M8 18H6M36 10L38 8M40 18H42M17.08 36C17.2638 37.707 18.0721 39.2859 19.3494 40.4331C20.6268 41.5803 22.2831 42.2149 24 42.2149C25.7169 42.2149 27.3732 41.5803 28.6506 40.4331C29.9279 39.2859 30.7362 37.707 30.92 36H17.08Z" stroke="#B90417" stroke-width="2.8" stroke-linecap="round" stroke-linejoin="round"/>
</svg>
