<svg width="48" height="48" viewBox="0 0 48 48" fill="none" xmlns="http://www.w3.org/2000/svg">
<path d="M34.2535 12.3597C34.6943 12.6657 34.8036 13.2711 34.4975 13.712L33.8526 14.6409H42.0105C42.5471 14.6409 42.9821 15.0759 42.9821 15.6126C42.9821 16.1492 42.5471 16.5842 42.0105 16.5842H32.181C31.3181 16.5842 30.8109 15.6146 31.303 14.9059L32.9012 12.6037C33.2072 12.1629 33.8127 12.0536 34.2535 12.3597Z" fill="#B90417"/>
<path d="M39.4889 21.0773C39.1988 21.5288 39.3295 22.1299 39.7809 22.4201C40.2323 22.7103 40.8335 22.5796 41.1236 22.1282L42.7316 19.6268C43.1888 18.9154 42.6781 17.98 41.8325 17.98H31.9952C31.4586 17.98 31.0235 18.415 31.0235 18.9517C31.0235 19.4883 31.4586 19.9233 31.9952 19.9233H40.2308L39.4889 21.0773Z" fill="#B90417"/>
<path fill-rule="evenodd" clip-rule="evenodd" d="M48 17.478C48 23.6058 43.0324 28.5734 36.9047 28.5734C30.7769 28.5734 25.8093 23.6058 25.8093 17.478C25.8093 11.3502 30.7769 6.38269 36.9047 6.38269C43.0324 6.38269 48 11.3502 48 17.478ZM45.5708 17.478C45.5708 22.2642 41.6909 26.1442 36.9047 26.1442C32.1184 26.1442 28.2385 22.2642 28.2385 17.478C28.2385 12.6918 32.1184 8.81185 36.9047 8.81185C41.6909 8.81185 45.5708 12.6918 45.5708 17.478Z" fill="#B90417"/>
<path d="M0 14.0407C0 11.7168 1.8839 9.83285 4.20781 9.83285H23.3402C24.0915 9.83285 24.7005 10.4419 24.7005 11.1932C24.7005 11.9445 24.0915 12.5535 23.3402 12.5535H4.20781C3.38648 12.5535 2.72065 13.2193 2.72065 14.0407V15.382H20.9917C21.743 15.382 22.3521 15.991 22.3521 16.7423C22.3521 17.4936 21.743 18.1026 20.9917 18.1026H2.72065V37.4096C2.72065 38.2309 3.38647 38.8968 4.20781 38.8968H38.083C38.9043 38.8968 39.5701 38.2309 39.5701 37.4096V31.789C39.5701 31.0377 40.1792 30.4287 40.9305 30.4287C41.6817 30.4287 42.2908 31.0377 42.2908 31.789V37.4096C42.2908 39.7335 40.4069 41.6174 38.083 41.6174H4.20781C1.8839 41.6174 0 39.7335 0 37.4096V14.0407Z" fill="#B90417"/>
<path d="M4.90945 34.7585C4.90945 34.0072 5.51849 33.3982 6.26977 33.3982H14.174C14.9253 33.3982 15.5343 34.0072 15.5343 34.7585C15.5343 35.5098 14.9253 36.1188 14.174 36.1188H6.26977C5.51849 36.1188 4.90945 35.5098 4.90945 34.7585Z" fill="#B90417"/>
</svg>
